/* XPM */
static const char *arrow_down[] = {
/* columns rows colors chars-per-pixel */
"16 16 60 1",
"  c #256421",
". c #266522",
"X c #276623",
"o c #286824",
"O c #296925",
"+ c #2C6D27",
"@ c #33752D",
"# c #367A31",
"$ c #3D8236",
"% c #3E8338",
"& c #438A3C",
"* c #458C3D",
"= c #4A8C45",
"- c #4B8D46",
"; c #4D8F48",
": c #4A9242",
"> c #4C9545",
", c #50924B",
"< c #509A48",
"1 c #539E4A",
"2 c #559A4E",
"3 c #579951",
"4 c #57A24E",
"5 c #59A650",
"6 c #5DAA53",
"7 c #5FAD56",
"8 c #63B259",
"9 c #65B45B",
"0 c #68B85D",
"q c #6ABB5F",
"w c #6CAD65",
"e c #6DBE62",
"r c #7CBF76",
"t c #6FC063",
"y c #70C265",
"u c #72C566",
"i c #73C667",
"p c #74C768",
"a c #7EC079",
"s c #80C17A",
"d c #82C27D",
"f c #85C37E",
"g c #87C581",
"h c #89C682",
"j c #8CC785",
"k c #8EC987",
"l c #91CA8A",
"z c #93CB8B",
"x c #95CC8E",
"c c #98CE90",
"v c #9ACF93",
"b c #9CD094",
"n c #9FD296",
"m c #A1D398",
"M c #A3D49A",
"N c #A5D49C",
"B c #A7D69E",
"V c #A9D7A0",
"C c #ABD8A2",
"Z c None",
/* pixels */
"ZZZZZZZZZZZZZZZZ",
"ZZZZZZpuyeZZZZZZ",
"ZZZZZZuCC0ZZZZZZ",
"ZZZZZZtBN8ZZZZZZ",
"ZZZZZZqMm6ZZZZZZ",
"ZZZZZZ9nn4ZZZZZZ",
"ZZZZZZ7vx<ZZZZZZ",
"ZZZZZZ5xz:ZZZZZZ",
"ZZZZZZ1zk&ZZZZZZ",
"ZZZZZZ>jh$ZZZZZZ",
"ZZZZZZ2gf#ZZZZZZ",
"ZZZZ:*wds,+oZZZZ",
"ZZZZZ%3ar=XZZZZZ",
"ZZZZZZ@;=XZZZZZZ",
"ZZZZZZZoXZZZZZZZ",
"ZZZZZZZZZZZZZZZZ"
};
