/* XPM */
static const char *arrow_right[] = {
/* columns rows colors chars-per-pixel */
"16 16 44 1",
"  c #246321",
". c #296925",
"X c #35782F",
"o c #3B8035",
"O c #42883B",
"+ c #45883F",
"@ c #498B44",
"# c #4A8C45",
"$ c #499141",
"% c #4F9947",
"& c #50914A",
"* c #5C9D55",
"= c #56A14D",
"- c #5CA953",
"; c #5EA159",
": c #62A35A",
"> c #62B158",
", c #68B85D",
"< c #6DBE61",
"1 c #7CBE76",
"2 c #71C365",
"3 c #74C768",
"4 c #80C17A",
"5 c #82C27D",
"6 c #84C37E",
"7 c #87C581",
"8 c #89C682",
"9 c #8BC785",
"0 c #8EC987",
"q c #90CA89",
"w c #93CB8B",
"e c #95CC8E",
"r c #98CE90",
"t c #9ACF93",
"y c #9DD094",
"u c #9FD296",
"i c #A1D398",
"p c #A3D49A",
"a c #A5D59C",
"s c #A7D69E",
"d c #A9D7A0",
"f c #ABD8A2",
"g c #AEDAA5",
"h c None",
/* pixels */
"hhhhhhhhhhhhhhhh",
"hhhhhhhhhhhhhhhh",
"hhhhhhhhhhhhhhhh",
"hhhhhhhhhhhhhhhh",
"hhhhhhhhhhh%hhhh",
"hhhhhhhhhhh$Ohhh",
"h332<,>-=%$:*Xhh",
"h3gfsputeq975&.h",
"h2ssiytq08641# h",
"h<,>-=%$Oo+;@ hh",
"hhhhhhhhhhh. hhh",
"hhhhhhhhhhh hhhh",
"hhhhhhhhhhhhhhhh",
"hhhhhhhhhhhhhhhh",
"hhhhhhhhhhhhhhhh",
"hhhhhhhhhhhhhhhh"
};
