/* XPM */
static const char *arrow_left[] = {
/* columns rows colors chars-per-pixel */
"16 16 45 1",
"  c #205E1D",
". c #246321",
"X c #296925",
"o c #2F702A",
"O c #35782F",
"+ c #3B8035",
"@ c #42883B",
"# c #499141",
"$ c #4F9947",
"% c #56A14D",
"& c #5CA953",
"* c #64AA5B",
"= c #62B158",
"- c #68B85D",
"; c #7BBE71",
": c #78BD72",
"> c #7CBE76",
", c #71C365",
"< c #74C768",
"1 c #7EC078",
"2 c #80C17A",
"3 c #83C17A",
"4 c #82C27D",
"5 c #84C37E",
"6 c #86C87B",
"7 c #87C97C",
"8 c #8ACC7F",
"9 c #87C581",
"0 c #89C682",
"q c #8BC785",
"w c #8BCD80",
"e c #8EC987",
"r c #90CA89",
"t c #93CB8B",
"y c #95CC8E",
"u c #98CE90",
"i c #9ACF93",
"p c #9DD094",
"a c #9FD296",
"s c #A1D398",
"d c #A3D49A",
"f c #A5D59C",
"g c #A7D69E",
"h c #ABD8A2",
"j c None",
/* pixels */
"jjjjjjjjjjjjjjjj",
"jjjjjjjjjjjjjjjj",
"jjjjjjjjjjjjjjjj",
"jjjjjjjjjjjjjjjj",
"jjjj<jjjjjjjjjjj",
"jjj<,jjjjjjjjjjj",
"jj<w7-=&%$#@+Ooj",
"j<8hgdaiyrq941Xj",
"j,6gspire052>:.j",
"jj-;3*$#@+OoX. j",
"jjj&%jjjjjjjjjjj",
"jjjj$jjjjjjjjjjj",
"jjjjjjjjjjjjjjjj",
"jjjjjjjjjjjjjjjj",
"jjjjjjjjjjjjjjjj",
"jjjjjjjjjjjjjjjj"
};
