/* XPM */
static const char *arrow_out[] = {
/* columns rows colors chars-per-pixel */
"16 16 96 2",
"   c #418A3E",
".  c #428B3F",
"X  c #428C3F",
"o  c #438D40",
"O  c #448D40",
"+  c #458E41",
"@  c #458F41",
"#  c #469042",
"$  c #479143",
"%  c #499445",
"&  c #4A9545",
"*  c #4C9447",
"=  c #4D9948",
"-  c #4E9948",
";  c #4F9B4A",
":  c #509C4A",
">  c #529F4C",
",  c #54A14E",
"<  c #55A24E",
"1  c #56A34F",
"2  c #57A450",
"3  c #57A550",
"4  c #58A651",
"5  c #59A752",
"6  c #5BA654",
"7  c #5AA852",
"8  c #5AA853",
"9  c #5BA953",
"0  c #5CAA54",
"q  c #5CAB54",
"w  c #5DAC55",
"e  c #5EAD56",
"r  c #5FAD56",
"t  c #5FAE57",
"y  c #5EA05A",
"u  c #61A55D",
"i  c #63A45F",
"p  c #64A65E",
"a  c #64A75F",
"s  c #60AF58",
"d  c #61B058",
"f  c #61B159",
"g  c #62B159",
"h  c #62B259",
"j  c #63B35A",
"k  c #64B45B",
"l  c #66B65C",
"z  c #67B45F",
"x  c #68B95E",
"c  c #69B95F",
"v  c #67A862",
"b  c #70AD6C",
"n  c #71AD6D",
"m  c #73AE6E",
"M  c #6ABB60",
"N  c #6BBC60",
"B  c #6DBF63",
"V  c #71B46A",
"C  c #73B46C",
"Z  c #73B56C",
"A  c #73B66C",
"S  c #73B66D",
"D  c #74B56E",
"F  c #75B86E",
"G  c #7AB773",
"H  c #79B375",
"J  c #7DBD75",
"K  c #7EBD76",
"L  c #6EC063",
"P  c #70C365",
"I  c #71C365",
"U  c #72C466",
"Y  c #72C566",
"T  c #73C667",
"R  c #74C768",
"E  c #75C56B",
"W  c #83BB7D",
"Q  c #82C479",
"!  c #84C77B",
"~  c #86C07E",
"^  c #87CA7E",
"/  c #89BF83",
"(  c #8AC083",
")  c #8AC084",
"_  c #89C980",
"`  c #8CCC83",
"'  c #90C58A",
"]  c #93C78C",
"[  c #94C88D",
"{  c #95C98E",
"}  c #9BD192",
"|  c #A4D39B",
" . c #A5D69D",
".. c #A7D69E",
"X. c #A9D8A1",
"o. c None",
/* pixels */
"R R T T P o.o.o.o.o.o.l l g t t ",
"R X...P o.o.o.o.o.o.o.o.z ] { 0 ",
"U ..} ^ L o.o.o.o.o.o.g K ~ ' 8 ",
"P R ` | ! N o.o.o.o.g K ] S 5 3 ",
"P o.B _ Q N o.o.o.o.s F S 5 o.< ",
"o.o.o.N x o.o.o.o.o.o.8 5 o.o.o.",
"o.o.o.o.o.o.o.o.o.o.o.o.o.o.o.o.",
"o.o.o.o.o.o.o.o.o.o.o.o.o.o.o.o.",
"o.o.o.o.o.o.o.o.o.o.o.o.o.o.o.o.",
"o.o.o.o.o.o.o.o.o.o.o.o.o.o.o.o.",
"o.o.o.t t o.o.o.o.o.o.: ; o.o.o.",
"g o.t S V 5 o.o.o.o.; a v & o.$ ",
"g t V ) D 2 o.o.o.o.= p H i * O ",
"t ( G D 3 o.o.o.o.o.o.& y p n X ",
"q / W 6 o.o.o.o.o.o.o.o.$ n m X ",
"8 5 < < > o.o.o.o.o.o.$ O X X   "
};
