/* XPM */
static const char *bin[] = {
/* columns rows colors chars-per-pixel */
"16 16 98 2",
"   c #626262",
".  c #646464",
"X  c #656565",
"o  c gray40",
"O  c #686868",
"+  c gray42",
"@  c #6C6C6C",
"#  c gray43",
"$  c #6F6F6F",
"%  c gray44",
"&  c #717171",
"*  c #727272",
"=  c gray45",
"-  c #747474",
";  c gray46",
":  c gray47",
">  c #797979",
",  c #7C7C7C",
"<  c #7E7E7E",
"1  c #848484",
"2  c #868686",
"3  c #888888",
"4  c #898989",
"5  c gray55",
"6  c gray56",
"7  c gray57",
"8  c #929292",
"9  c #979797",
"0  c #9A9A9A",
"q  c #9D9D9D",
"w  c #A0A0A0",
"e  c gray63",
"r  c #A4A4A4",
"t  c #A5A5A5",
"y  c gray65",
"u  c #A7A7A7",
"i  c gray66",
"p  c #A9A9A9",
"a  c gray67",
"s  c #ACACAC",
"d  c #AFAFAF",
"f  c gray69",
"g  c #B1B1B1",
"h  c #B4B4B4",
"j  c gray71",
"k  c #B6B6B6",
"l  c #B7B7B7",
"z  c #B9B9B9",
"x  c gray73",
"c  c #BBBBBB",
"v  c #BCBCBC",
"b  c gray",
"n  c gray75",
"m  c #C1C1C1",
"M  c gray76",
"N  c gray77",
"B  c #C6C6C6",
"V  c gray78",
"C  c gray79",
"Z  c #CACACA",
"A  c #CBCBCB",
"S  c gray80",
"D  c #CDCDCD",
"F  c gray81",
"G  c #D0D0D0",
"H  c gray82",
"J  c LightGray",
"K  c gray83",
"L  c #D5D5D5",
"P  c #D7D7D7",
"I  c #D8D8D8",
"U  c #DADADA",
"Y  c gray86",
"T  c gainsboro",
"R  c #DDDDDD",
"E  c gray87",
"W  c #DFDFDF",
"Q  c #E2E2E2",
"!  c gray89",
"~  c #E4E4E4",
"^  c gray90",
"/  c #E6E6E6",
"(  c gray91",
")  c #E9E9E9",
"_  c #EAEAEA",
"`  c gray92",
"'  c gray93",
"]  c #EEEEEE",
"[  c #EFEFEF",
"{  c gray94",
"}  c #F1F1F1",
"|  c #F3F3F3",
" . c #F4F4F4",
".. c gray96",
"X. c #F6F6F6",
"o. c #F9F9F9",
"O. c #FDFDFD",
"+. c None",
/* pixels */
"+.+.+.+.+.+.+.+.+.+.A +.+.+.+.+.",
"+.+.+.+.+.+.+.* 9 ( | F * +.+.+.",
"+.+.+.+.+.+.* z I X.O.( v + +.+.",
"+.+.+.+.+.- B E ( ( X.| ( a @ +.",
"+.+.+.+.+.e ] | ^ ] ] o.E ! 3 +.",
"+.+.+.+.+.f A ] ] ] ] ] ] r 3 +.",
"+.+.s a r e z B v m z B z B 1 +.",
"+.a P ] | ! k a A F A B k k < +.",
"+.m | ^ ( | ] k a P A H q k : +.",
"r ! I I E ^ ] ( 1 P F H 9 f - +.",
"e ^ v H P I ^ X.: A F H 8 f * +.",
"0 E ( z r F I X.* v A F 6 s + +.",
"+.k | ^ I E I | @ F A F 6 z o +.",
"+.3 k | ( ! ^ k 8 ! ! E P q   +.",
"+.+.: a I I H o * * @ + o   +.+.",
"+.+.+.+.+ + o +.+.+.+.+.+.+.+.+."
};
