/* XPM */
static const char * ch2_[] = {
/* columns rows colors chars-per-pixel */
"16 16 8 1",
"0 c #FF0000",
"1 c #FF2A2A",
"2 c #FF3333",
"3 c #FF2000",
"4 c #FF1000",
"5 c #FF6347",
"X c #E9967A",
". c None",
/* pixels */
"................",
"................",
"......0000......",
".....00..00.....",
"....55...X55....",
"....44....44....",
"..........44....",
".........44.....",
"........44......",
"......33........",
".....33.........",
"....22222000....",
"....00001111....",
"................",
"................",
"................"
};
