/* XPM */
static const char *ch2_[] = {
/* columns rows colors chars-per-pixel */
"16 16 12 1",
"1 c grey8",
"2 c grey12",
"3 c grey16",
"4 c grey20",
"5 c grey24",
"6 c grey28",
"7 c grey32",
"8 c grey36",
"9 c grey40",
"0 c grey44",
"X c grey72",
". c None",
/* pixels */
"................",
"................",
"......0000......",
".....00..00.....",
"....99...X9.....",
"....99....99....",
"..........88....",
".........88.....",
"........88......",
"......66........",
".....66.........",
"....44444333....",
"....33332222....",
"................",
"................",
"................"
};
