/* XPM */
static const char *cursor[] = {
/* columns rows colors chars-per-pixel */
"16 16 63 1",
"  c gray46",
". c gray47",
"X c #797979",
"o c #7C7C7C",
"O c gray49",
"+ c #848484",
"@ c #868686",
"# c #888888",
"$ c #898989",
"% c #8D8D8D",
"& c #8E8E8E",
"* c gray57",
"= c gray58",
"- c #959595",
"; c gray59",
": c gray61",
"> c #9D9D9D",
", c gray62",
"< c #A0A0A0",
"1 c #A4A4A4",
"2 c #A7A7A7",
"3 c #A9A9A9",
"4 c #AAAAAA",
"5 c gray68",
"6 c #AFAFAF",
"7 c #B1B1B1",
"8 c gray71",
"9 c #B6B6B6",
"0 c #B7B7B7",
"q c #B9B9B9",
"w c #BBBBBB",
"e c gray74",
"r c gray",
"t c #C1C1C1",
"y c gray77",
"u c #C5C5C5",
"i c #C6C6C6",
"p c #C8C8C8",
"a c #CBCBCB",
"s c #D0D0D0",
"d c #D5D5D5",
"f c #D7D7D7",
"g c gray85",
"h c gray86",
"j c #DFDFDF",
"k c gray88",
"l c #E1E1E1",
"z c #E2E2E2",
"x c gray89",
"c c #E4E4E4",
"v c gray90",
"b c #E7E7E7",
"n c gray91",
"m c #EAEAEA",
"M c #ECECEC",
"N c gray93",
"B c #EEEEEE",
"V c #EFEFEF",
"C c gray94",
"Z c gray95",
"A c #F4F4F4",
"S c gray97",
"D c None",
/* pixels */
"DDDDDDDDDDDDDDDD",
"DDDDpuDDDDDDDDDD",
"DDDDugeDDDDDDDDD",
"DDDDtSdqDDDDDDDD",
"DDDDeSVa6DDDDDDD",
"DDDD0SVVp2DDDDDD",
"DDDD0ZncVu,DDDDD",
"DDDD6Vczzct;DDDD",
"DDDD6Vzzzccq%DDD",
"DDDD2Zzcc;*%$$DD",
"DDDD1d,aV*DDDDDD",
"DDDD,,D;gt$DDDDD",
"DDDD,DDD6Z@DDDDD",
"DDDDDDDD@gqODDDD",
"DDDDDDDDD4g.DDDD",
"DDDDDDDDDO. DDDD"
};
