/* XPM */
static const char *event[] = {
/* columns rows colors chars-per-pixel */
"16 16 4 1",
"  c grey32",
"x c grey48",
"X c grey64",
". c None",
/* pixels */
"................",
"    X......... x",
"... X........ x.",
"... X....... x..",
"... X...... x...",
"... X..... x....",
"... X....X X....",
"... X.... X.....",
"... X...X ......",
"... X..X .......",
"... X.X X.......",
"...x X  X.......",
"...X   X........",
"....X ..........",
"................",
"................"
};
