/* XPM */
static const char *fit_lim[] = {
/* columns rows colors chars-per-pixel */
"16 16 4 1",
"  c grey32",
"x c grey48",
"X c grey64",
". c None",
/* pixels */
"x...............",
"x............xx.",
"x............  .",
"x............  .",
"x...........X  .",
"x..xx xx....   .",
"x.X      ..X  .x",
"x.   XX       .x",
"x.  ....     ..x",
"x.  ......xx...x",
"xX  ...........x",
".  X...........x",
".  ............x",
".  ............x",
".xx............x",
"...............x"
};
