/* XPM */
static const char * latency_lim[] = {
"16 16 13 1",
" 	c None",
".	c #678FB1",
"+	c #97B4CD",
"@	c #DCE9F5",
"#	c #97BDE1",
"$	c #DBE8F4",
"%	c #95B2CC",
"&	c #72A6D6",
"*	c #EBF2F9",
"=	c #AFCCE8",
"-	c #96BCE0",
";	c #D6E5F2",
">	c #96B3CC",
"                ",
"                ",
"     ..  ..     ",
"    .+@..@+.    ",
"   .+@@..@@+.   ",
"  .+@#@..$#$%.  ",
" .+@#&#**#&#$+. ",
".+@#&&&==&&&-@+.",
".+@#&&&==&&&-@+.",
" .+@#&#**#&#$+. ",
"  .+@#@..$-;>.  ",
"   .+@@..@@+.   ",
"    .+@..@+.    ",
"     ..  ..     ",
"                ",
"                "};
