/* XPM */
static const char *resultset_previous[] = {
/* columns rows colors chars-per-pixel */
"16 16 54 1",
"  c #1130B0",
". c #1233B4",
"X c #1339B4",
"o c #1339B7",
"O c #1440B9",
"+ c #1547BD",
"@ c #164ABD",
"# c #1752C0",
"$ c #195CC4",
"% c #195CC6",
"& c #315FC4",
"* c #1B65C9",
"= c #276ECD",
"- c #376BC9",
"; c #2A72CF",
": c #3D77D0",
"> c #3A7CD4",
", c #4180D6",
"< c #4885D6",
"1 c #4A87D9",
"2 c #5089D9",
"3 c #538DD9",
"4 c #5A90DB",
"5 c #5990DD",
"6 c #5F95DC",
"7 c #6295DA",
"8 c #6095DD",
"9 c #6698DB",
"0 c #679ADC",
"q c #6599DF",
"w c #699BDC",
"e c #6E9FDD",
"r c #71A1DE",
"t c #72A1DF",
"y c #6297E1",
"u c #6599E1",
"i c #6B9BE1",
"p c #6B9DE0",
"a c #71A0E0",
"s c #77A4E0",
"d c #75A4E3",
"f c #7AA6E1",
"g c #7AA6E5",
"h c #7CA9E1",
"j c #81ABE3",
"k c #83ADE3",
"l c #86AFE5",
"z c #8BB3E5",
"x c #8DB2E6",
"c c #95B8E8",
"v c #95B9E8",
"b c #99BBE9",
"n c #9ABDEA",
"m c None",
/* pixels */
"mmmmmmmmmmmmmmmm",
"mmmmmmmmmmmmmmmm",
"mmmmmmmmmiummmmm",
"mmmmmmmmqy5mmmmm",
"mmmmmmm8gn1mmmmm",
"mmmmmm4dnc>mmmmm",
"mmmmm3ablx;mmmmm",
"mmmm2pcjrk*mmmmm",
"mmmm,7xtqt%mmmmm",
"mmmmm;<hwt#mmmmm",
"mmmmmm%:rw+mmmmm",
"mmmmmmm@-7Ommmmm",
"mmmmmmmmo&ommmmm",
"mmmmmmmmm .mmmmm",
"mmmmmmmmmmmmmmmm",
"mmmmmmmmmmmmmmmm"
};
