/* XPM */
static const char *resultset_first[] = {
/* columns rows colors chars-per-pixel */
"16 16 80 1",
"  c #1233B2",
". c #1239B6",
"X c #133CB7",
"o c #143EB6",
"O c #1441BB",
"+ c #164ABD",
"@ c #1752C0",
"# c #1855C4",
"$ c #195AC4",
"% c #1859C6",
"& c #195CC6",
"* c #1A62C8",
"= c #1E69CB",
"- c #1E6BCD",
"; c #3364C6",
": c #386BCA",
"> c #2C74CF",
", c #3D77D0",
"< c #397BD2",
"1 c #4481D3",
"2 c #4180D4",
"3 c #4384D6",
"4 c #4784D6",
"5 c #4A85D6",
"6 c #4584D8",
"7 c #4A89D9",
"8 c #4C89D8",
"9 c #5089D9",
"0 c #528BD9",
"q c #538DD9",
"w c #5E91D8",
"e c #5C92DF",
"r c #6397DA",
"t c #6297DB",
"y c #6597DB",
"u c #6497DD",
"i c #669ADF",
"p c #6A9BDC",
"a c #6B9CDD",
"s c #699DDF",
"d c #6E9FDD",
"f c #6D9DDE",
"g c #6D9EDE",
"h c #709FDE",
"j c #71A1DF",
"k c #76A3DF",
"l c #659BE1",
"z c #73A2E1",
"x c #70A0E2",
"c c #77A4E1",
"v c #77A6E6",
"b c #79A7E1",
"n c #7AA7E0",
"m c #7BA8E1",
"M c #7EA8E1",
"N c #7EA9E2",
"B c #7EA9E8",
"V c #83ACE3",
"C c #85ADE4",
"Z c #86AEE4",
"A c #80ABE8",
"S c #80ABEA",
"D c #8AB1E5",
"F c #8DB2E6",
"G c #8EB3E6",
"H c #8FB5E7",
"J c #8FB4E8",
"K c #90B5E6",
"L c #90B4E7",
"P c #91B6E8",
"I c #96B9EA",
"U c #98BBE9",
"Y c #9DBEEC",
"T c #9EC0EB",
"R c #A2C1EE",
"E c #A5C4ED",
"W c #ABC8EF",
"Q c #B0CBF0",
"! c #B4CEF2",
"~ c None",
/* pixels */
"~~~~~~~~~~~~~~~~",
"~~~~~~~~~~~~~~~~",
"~~~SSBv~~~~q0~~~",
"~~~S!Rx~~~876~~~",
"~~~vQYl~~5aP<~~~",
"~~~xWIe~4lJF>~~~",
"~~~lEJ01uKMC-~~~",
"~~~eTU3xFbaM*~~~",
"~~~0UF<gCjrk%~~~",
"~~~6Pc>=1mrh@~~~",
"~~~<Dg-~$,da+~~~",
"~~~>Vy*~~+:rO~~~",
"~~~-mw%~~~o;X~~~",
"~~~*&#@~~~~ .~~~",
"~~~~~~~~~~~~~~~~",
"~~~~~~~~~~~~~~~~"
};
