/* XPM */
static const char *resultset_last[] = {
/* columns rows colors chars-per-pixel */
"16 16 83 1",
"  c #1239B6",
". c #133AB7",
"X c #133CB7",
"o c #143EB9",
"O c #1441BB",
"+ c #164ABD",
"@ c #1752C0",
"# c #1855C0",
"$ c #1959C4",
"% c #1859C6",
"& c #195CC6",
"* c #1A60C6",
"= c #1A62C8",
"- c #1A63C8",
"; c #1E6BCD",
": c #2A72CF",
"> c #2C74CF",
", c #397BD1",
"< c #397BD2",
"1 c #4281D3",
"2 c #4481D3",
"3 c #4685D6",
"4 c #4E80D2",
"5 c #4B87D6",
"6 c #4584D8",
"7 c #4E89D8",
"8 c #5385D4",
"9 c #578BD6",
"0 c #528BD9",
"q c #5E92D9",
"w c #5E94D8",
"e c #5990DD",
"r c #5C92DF",
"t c #6397DA",
"y c #6095DF",
"u c #6297DF",
"i c #6699DD",
"p c #6A9BDC",
"a c #699DDF",
"s c #6E9DDF",
"d c #709FDE",
"f c #74A3DF",
"g c #76A3DF",
"h c #659BE1",
"j c #73A2E0",
"k c #70A0E2",
"l c #72A2E2",
"z c #77A6E6",
"x c #7AA6E5",
"c c #7BA8E3",
"v c #7EA8E1",
"b c #7FA9E3",
"n c #7FAAE3",
"m c #7BA7E8",
"M c #7EA9E8",
"N c #81ABE2",
"B c #82ABE3",
"V c #83ACE3",
"C c #85ADE4",
"Z c #84AEE4",
"A c #86AEE4",
"S c #80ABE8",
"D c #87B0E6",
"F c #89B1E4",
"G c #8AB1E5",
"H c #8BB2E5",
"J c #89B1E6",
"K c #8BB3E7",
"L c #8DB2E6",
"P c #88B0E8",
"I c #91B6E8",
"U c #92B7E8",
"Y c #94B7E8",
"T c #97BAEA",
"R c #98BBE9",
"E c #9ABCEA",
"W c #9EBEEA",
"Q c #9EC0EB",
"! c #A6C3EE",
"~ c #A5C4ED",
"^ c #ABC8EF",
"/ c #ADC8EF",
"( c None",
/* pixels */
"((((((((((((((((",
"((((((((((((((((",
"(((SM((((hue0(((",
"(((SMk(((rJE6(((",
"(((z/Pu((0AY<(((",
"(((k^!x7(3cL>(((",
"(((h~TWa<<kA;(((",
"(((rQDJUs:Nv=(((",
"(((0TNNLi;ff%(((",
"(((6UvJ5==qd+(((",
"(((<JA3*(%9a+(((",
"(((>V2&((@8tO(((",
"(((;1%(((+4tO(((",
"(((=#((((Oo  (((",
"((((((((((((((((",
"(((((((((((((((("
};
