/* XPM */
static const char *sum_new[] = {
/* columns rows colors chars-per-pixel */
"16 16 48 1",
"  c black",
". c gray8",
"X c gray16",
"o c #2A2A2A",
"O c #2D2D2D",
"+ c gray18",
"@ c #2F2F2F",
"# c #313131",
"$ c #323232",
"% c #343434",
"& c #353535",
"* c #373737",
"= c #3A3A3A",
"- c gray25",
"; c gray27",
": c gray28",
"> c #484848",
", c #494949",
"< c #4C4C4C",
"1 c #4E4E4E",
"2 c gray31",
"3 c #515151",
"4 c gray32",
"5 c #555555",
"6 c #565656",
"7 c #585858",
"8 c #5D5D5D",
"9 c gray39",
"0 c #646464",
"q c gray40",
"w c #686868",
"e c #6A6A6A",
"r c #6D6D6D",
"t c #6F6F6F",
"y c gray44",
"u c #727272",
"i c gray45",
"p c #767676",
"a c #777777",
"s c #7B7B7B",
"d c #7E7E7E",
"f c #818181",
"g c #8B8B8B",
"h c gray56",
"j c #9A9A9A",
"k c gray62",
"l c gray74",
"z c None",
/* pixels */
"zzzzzzzzzzzzzzzz",
"zzzzzzzzzzzzzzzz",
"zzfdspytw9zzzzzz",
"zzdlsytwq8zzzzzz",
"zzzghzzzz6zzzzzz",
"zzzykqzzzzzzzzzz",
"zzzzqjzzzzzzzzzz",
"zzzzz74zzzzzzzzz",
"zzzz64zzzzzzz zz",
"zzz64,zzz%zz zzz",
"zzz<:zzzz+z zzzz",
"zz<::%%$+oz ---z",
"zz:==%$+o. -zzz-",
"zzzzzzzzz z-zzz-",
"zzzzzzzz zz-zzz-",
"zzzzzzz zzz-zzz-"
};
