/* XPM */
static const char *table[] = {
/* columns rows colors chars-per-pixel */
"16 16 100 2",
"   c #7CBE76",
".  c #80C17A",
"X  c #84C37E",
"o  c #4277BB",
"O  c #5284C3",
"+  c #5486C4",
"@  c #5586C6",
"#  c #5687C7",
"$  c #5D8AC5",
"%  c #5C8AC6",
"&  c #5F8CC6",
"*  c #598AC8",
"=  c #5B8AC9",
"-  c #5F8DC8",
";  c #5E8ECB",
":  c #5F8FCB",
">  c #6392CE",
",  c #6493CE",
"<  c #6896D1",
"1  c #6A97D1",
"2  c #6E99D3",
"3  c #6F9BD4",
"4  c #729ED6",
"5  c #74A0D7",
"6  c #75A1D7",
"7  c #7AA3DA",
"8  c #7AA4D9",
"9  c #7DA5DC",
"0  c #7EA8DD",
"q  c #89C682",
"w  c #8EC987",
"e  c #93CB8B",
"r  c #98CE90",
"t  c #9DD094",
"y  c #A1D398",
"u  c #A5D59C",
"i  c #80A9DD",
"p  c #82AADF",
"a  c #84ACE0",
"s  c #87AEE1",
"d  c #88AFE2",
"f  c #8CB1E3",
"g  c #8CB2E4",
"h  c #8FB4E5",
"j  c #90B5E6",
"k  c #93B7E7",
"l  c #94B7E7",
"z  c #96BAE9",
"x  c #98BAE9",
"c  c #9ABCEB",
"v  c #9BBDEB",
"b  c #9DBEEB",
"n  c #9EBFEC",
"m  c #9FC0ED",
"M  c #A6C3E9",
"N  c #A1C1EE",
"B  c #A2C1EF",
"V  c #A9C4E8",
"C  c #AAC6E9",
"Z  c #ACC7E8",
"A  c #ACC6E9",
"S  c #ADC7E9",
"D  c #ACC7EA",
"F  c #ADC7EA",
"G  c #AEC8E8",
"H  c #AEC9E9",
"J  c #AEC9EA",
"K  c #B0C8E8",
"L  c #B0C9E9",
"P  c #B0C9EA",
"I  c #B2CBEA",
"U  c #B3CCEA",
"Y  c #B5CCE8",
"T  c #B5CDEA",
"R  c #B7CEEA",
"E  c #BACFEA",
"W  c #BAD0EB",
"Q  c #BBD0EB",
"!  c #BDD1EB",
"~  c #BED2EB",
"^  c #BFD3EB",
"/  c #D8E2F0",
"(  c #DBE4F1",
")  c #DBE5F1",
"_  c #DEE7F2",
"`  c #DEE7F3",
"'  c #E2EAF4",
"]  c #E6EDF6",
"[  c #EAF0F7",
"{  c #EBF1F7",
"}  c #EDF2F8",
"|  c #EEF3F9",
" . c #EFF3F9",
".. c #F0F4FA",
"X. c #F1F6FA",
"o. c #F2F6FA",
"O. c #F2F6FB",
"+. c #F4F7FB",
"@. c gray100",
"#. c None",
/* pixels */
"#.#.#.#.#.#.#.#.#.#.#.#.#.#.#.#.",
"#.#.B m b v z k k g d a i 9 7 #.",
"#.B +.+.+.+.+.+.o.o.+.+.+.+.5 #.",
"#.n +.u y t r e w q X .   o.4 #.",
"#.v +.@.@.@.@.@.@.@.@.@.@.+.1 #.",
"#.x +.M M M M M M M M M M +., #.",
"#.l +.M @.C @.@.@.A @.@.@.{ : #.",
"#.h o.C A A A H K Z K K Y _ * #.",
"#.g O.J @.K @.@.@.H @.@.@.) @ #.",
"#.a o.U U U U U Y Z A K H / @ #.",
"#.a  .Y @.W @.@.@.W O.@.@./ & #.",
"#.9  .W E ! W E ! Y Y T Y / % #.",
"#.8  .^ @.! @.@.@.A @.@.@./ & #.",
"#.5  .[ ] ' ` _ / / / / / / % #.",
"#.4 2 < , ; = @ O O O O O O o #.",
"#.#.#.#.#.#.#.#.#.#.#.#.#.#.#.#."
};
