/* XPM */
static const char *zoom[] = {
/* columns rows colors chars-per-pixel */
"16 16 67 1",
"  c #874828",
". c #9B5830",
"X c #A55C33",
"o c #AB6437",
"O c #AB6737",
"+ c #AB643D",
"@ c #BE7340",
"# c #B67943",
"$ c #B77E47",
"% c #B87F47",
"& c #B98048",
"* c #B98149",
"= c #BC854A",
"- c #BC844B",
"; c #BB814C",
": c #BC834F",
"> c #BC864C",
", c #BD864C",
"< c #BD894C",
"1 c #BE894D",
"2 c #BE8A4D",
"3 c #BE8A4F",
"4 c #BC8451",
"5 c #C18E4F",
"6 c #C18F4F",
"7 c #C28F50",
"8 c #C18C52",
"9 c #C18E58",
"0 c #C39150",
"q c #C39153",
"w c #C39255",
"e c #C39156",
"r c #C49555",
"t c #C69655",
"y c #C79757",
"u c #C69956",
"i c #C79A57",
"p c #C89C57",
"a c #C99F5B",
"s c #CDA45B",
"d c #CCA15D",
"f c #CDA55E",
"g c #CDA65E",
"h c #CEA65E",
"j c #CEA75E",
"k c #C99B61",
"l c #CDA561",
"z c #CEA660",
"x c #CEA761",
"c c #CEA662",
"v c #CFA762",
"b c #CFA861",
"n c #CFA864",
"m c #D2AB6F",
"M c #D6B479",
"N c #D7B57D",
"B c #D6B57F",
"V c #DABB80",
"C c #DBBF87",
"Z c #DEC48D",
"A c #DFC58F",
"S c #E0C793",
"D c #E3CC99",
"F c #E7D3A0",
"G c #E8D5A3",
"H c #E9D7A5",
"J c None",
/* pixels */
"JJJjxnxdaJJJJJJJ",
"JJxjJJJJuyJJJJJJ",
"JxsJJJJJJ00JJJJJ",
"jjJJJJJJJJ7<JJJJ",
"xJJJJJJJJJJ<JJJJ",
"xJJJJJJJJJJ3JJJJ",
"xJJJJJJJJJJ,JJJJ",
"aJJJJJJJJJJ%JJJJ",
"uyJJJJJJJJ*#JJJJ",
"Jr0JJJJJJem@JJJJ",
"JJ7<JJJJ7MDA4JJJ",
"JJJ=,,-$;CGGV+JJ",
"JJJJJJJJJ9SFSk J",
"JJJJJJJJJJ:NV9OJ",
"JJJJJJJJJJJX%OJJ",
"JJJJJJJJJJJJ.JJJ"
};
