/* XPM */
static const char *zoom_out[] = {
/* columns rows colors chars-per-pixel */
"16 16 74 1",
"  c #EA111C",
". c #EC1A23",
"X c #EE262E",
"o c #F1353A",
"O c #874828",
"+ c #A55C33",
"@ c #AB6437",
"# c #AB6737",
"$ c #AB643D",
"% c #B77E47",
"& c #F44548",
"* c #F75456",
"= c #FA6362",
"- c #FC6F6D",
"; c #FE7874",
": c #B98048",
"> c #BC854A",
", c #BC844B",
"< c #BB814C",
"1 c #BC834F",
"2 c #BC864C",
"3 c #BD864C",
"4 c #BD894C",
"5 c #BE894D",
"6 c #BE8A4D",
"7 c #BE8A4F",
"8 c #BC8451",
"9 c #C18E4F",
"0 c #C18F4F",
"q c #C28F50",
"w c #C18C52",
"e c #C18E58",
"r c #C39150",
"t c #C39153",
"y c #C39156",
"u c #C49555",
"i c #C69655",
"p c #C79757",
"a c #C69956",
"s c #C79A57",
"d c #C89C57",
"f c #C99F5B",
"g c #CDA45B",
"h c #CCA15D",
"j c #CDA55E",
"k c #CDA65E",
"l c #CEA65E",
"z c #CEA75E",
"x c #C99B61",
"c c #CDA561",
"v c #CEA660",
"b c #CEA761",
"n c #CEA662",
"m c #CFA762",
"M c #CFA861",
"N c #CFA864",
"B c #D6B479",
"V c #D7B57D",
"C c #D6B57F",
"Z c #DABB80",
"A c #DBBF87",
"S c #F3A09B",
"D c #F4ABA4",
"F c #F6B6AE",
"G c #DEC48D",
"H c #DFC58F",
"J c #E0C793",
"K c #E3CC99",
"L c #E7D3A0",
"P c #E8D5A3",
"I c #E9D7A5",
"U c #F7C0B7",
"Y c #F8C8BF",
"T c None",
/* pixels */
"TTTTTTTTTTTTTTTT",
"TTTzvNNhfTTTTTTT",
"TTMzTTTTapTTTTTT",
"TMgTTTTTTrrTTTTT",
"zzTTTTTTTT97TTTT",
"vTTTTTTTTTT7TTTT",
"vTTTTTTTTTT7TTTT",
"vTTTTTTTTTT3TTTT",
"fTTTT;-=*&oXTTTT",
"apTTT-YUFDS.TTTT",
"Tp0TT=*&oX. TTTT",
"TT97TTTTwBKG1TTT",
"TTT>33,%1APIZ$TT",
"TTTTTTTTTeHLJxOT",
"TTTTTTTTTT8VVe#T",
"TTTTTTTTTTT+:#TT"
};
