/* XPM */
static const char *___em_down[] = {
/* columns rows colors chars-per-pixel */
"16 16 10 1",
"  c #678FB1",
". c #72A6D6",
"X c #B8B7AD",
"o c #97B4CD",
"O c #9DB8CF",
"+ c #97BDE1",
"@ c #AFCCE8",
"# c #DCE9F5",
"$ c #EBF2F9",
"% c None",
/* pixels */
"%%%%%%%%%%%%%%%%",
"%%%%%      %%%%%",
"%%%%% $$$$ %%%%%",
"%%%%% $@@$ %%%%%",
"%%%%% $@@$ %%%%%",
"%%%%% $@@$ %%%%%",
"%%   O$@@$O   %%",
"%% ###+..+### %%",
"%% o#+....+#o %%",
"%%X o#+..+#o X%%",
"%%%X o#++#o X%%%",
"%%%%X o##o X%%%%",
"%%%%%X oo X%%%%%",
"%%%%%%X  X%%%%%%",
"%%%%%%%XX%%%%%%%",
"%%%%%%%%%%%%%%%%"
};
