/* XPM */
static const char *arrow_up[] = {
/* columns rows colors chars-per-pixel */
"16 16 60 1",
"  c #22601E",
". c #256421",
"X c #266522",
"o c #296925",
"O c #2B6B26",
"+ c #2D6E28",
"@ c #30722B",
"# c #33752D",
"$ c #367A31",
"% c #397D33",
"& c #3D8236",
"* c #3F8539",
"= c #438A3C",
"- c #468D3F",
"; c #4A9242",
": c #4C9545",
"> c #509A48",
", c #539E4A",
"< c #58A44F",
"1 c #59A650",
"2 c #5EAC55",
"3 c #5FAD56",
"4 c #65AC5D",
"5 c #65B45B",
"6 c #68B85D",
"7 c #6EBF62",
"8 c #78BD72",
"9 c #7ABD74",
"0 c #7CBF76",
"q c #70C265",
"w c #71C365",
"e c #72C466",
"r c #72C566",
"t c #73C667",
"y c #7DC073",
"u c #7EC079",
"i c #80C17A",
"p c #83C679",
"a c #82C27D",
"s c #86C37D",
"d c #85C37E",
"f c #85C87B",
"g c #87CA7C",
"h c #88CA7E",
"j c #87C581",
"k c #89C682",
"l c #8CC785",
"z c #8EC987",
"x c #91CA8A",
"c c #93CB8B",
"v c #95CC8E",
"b c #98CE90",
"n c #9ACF93",
"m c #9CD094",
"M c #9FD296",
"N c #A1D398",
"B c #A3D49A",
"V c #A5D49C",
"C c #A7D69E",
"Z c None",
/* pixels */
"ZZZZZZZZZZZZZZZZ",
"ZZZZZZZrwZZZZZZZ",
"ZZZZZZrhg6ZZZZZZ",
"ZZZZZrgCV93ZZZZZ",
"ZZZZw7pBNs<,ZZZZ",
"ZZZZZZ5MM4ZZZZZZ",
"ZZZZZZ3nv>ZZZZZZ",
"ZZZZZZ1vc;ZZZZZZ",
"ZZZZZZ,cz=ZZZZZZ",
"ZZZZZZ:lk&ZZZZZZ",
"ZZZZZZ-js$ZZZZZZ",
"ZZZZZZ*au@ZZZZZZ",
"ZZZZZZ%uuOZZZZZZ",
"ZZZZZZ#98XZZZZZZ",
"ZZZZZZ+oX ZZZZZZ",
"ZZZZZZZZZZZZZZZZ"
};
