/* XPM */
static const char *camera[] = {
/* columns rows colors chars-per-pixel */
"16 16 143 2",
"   c #2A2A2A",
".  c gray17",
"X  c #2C2C2C",
"o  c #2D2D2D",
"O  c #313131",
"+  c gray20",
"@  c #343434",
"#  c #353535",
"$  c #373737",
"%  c #393939",
"&  c gray23",
"*  c #3C3C3C",
"=  c #3E3E3E",
"-  c #3F3F3F",
";  c gray25",
":  c #414141",
">  c gray26",
",  c #444444",
"<  c #464646",
"1  c gray28",
"2  c gray29",
"3  c #4E4E4E",
"4  c #505050",
"5  c #535353",
"6  c #565656",
"7  c gray34",
"8  c #585858",
"9  c #5A5A5A",
"0  c #5B5B5B",
"q  c gray36",
"w  c gray37",
"e  c #5F5F5F",
"r  c #606060",
"t  c gray38",
"y  c #626262",
"u  c #646464",
"i  c #656565",
"p  c #676767",
"a  c #686868",
"s  c DimGray",
"d  c #6A6A6A",
"f  c #6C6C6C",
"g  c #6D6D6D",
"h  c gray43",
"j  c #6F6F6F",
"k  c #717171",
"l  c #727272",
"z  c #747474",
"x  c gray46",
"c  c #767676",
"v  c gray47",
"b  c gray48",
"n  c #7C7C7C",
"m  c #7E7E7E",
"M  c #857C69",
"N  c #9B937F",
"B  c #F3BE41",
"V  c #5C96D5",
"C  c #5E96D5",
"Z  c #5E97D6",
"A  c #5F98D6",
"S  c #6496CE",
"D  c #6899CE",
"F  c #689ACE",
"G  c #6397D0",
"H  c #6397D1",
"J  c #6496D0",
"K  c #6099D6",
"L  c #6299D6",
"P  c #609AD6",
"I  c #629AD7",
"U  c #639BD7",
"Y  c #669BD7",
"T  c #649CD7",
"R  c #659CD7",
"E  c #699AD4",
"W  c #6A9AD4",
"Q  c #619AD8",
"!  c #659BD8",
"~  c #669CD8",
"^  c #679CD8",
"/  c #679DD8",
"(  c #669DD9",
")  c #699ED9",
"_  c #6A9FD9",
"`  c #6AA0D9",
"'  c #808080",
"]  c #818181",
"[  c #848484",
"{  c gray52",
"}  c #868686",
"|  c gray53",
" . c #888888",
".. c #8B8B8B",
"X. c gray55",
"o. c #8D8D8D",
"O. c #8E8E8E",
"+. c #909090",
"@. c #929292",
"#. c #939392",
"$. c #939393",
"%. c gray58",
"&. c #959595",
"*. c gray59",
"=. c #979797",
"-. c #989898",
";. c #9A9A9A",
":. c #9B9B9B",
">. c #9D9D9D",
",. c gray62",
"<. c #9F9F9F",
"1. c #8393A3",
"2. c #95A5B8",
"3. c gray64",
"4. c #A5A5A5",
"5. c gray65",
"6. c #A9A9A9",
"7. c #AAAAAA",
"8. c gray68",
"9. c #AEAEAE",
"0. c gray69",
"q. c #B4B4B4",
"w. c #B7B7B7",
"e. c #B9B9B9",
"r. c gray73",
"t. c #BCBCBC",
"y. c #F9E0A4",
"u. c #A2B3C5",
"i. c #B7C7DA",
"p. c #C0C0C0",
"a. c gray77",
"s. c #C6C6C6",
"d. c gray78",
"f. c #C8C8C8",
"g. c gray79",
"h. c gray80",
"j. c #D0D0D0",
"k. c #D2D2D2",
"l. c #D5D5D5",
"z. c #D7D7D7",
"x. c #D8D8D8",
"c. c #DDDDDD",
"v. c None",
/* pixels */
"v.v.v.v.v.v.v.v.v.v.v.v.v.v.v.v.",
"v.v.v.v.v.v.v.v.v.v.v.v.v.v.v.v.",
"v.-.+... .] v k h c ..v.v.v.v.v.",
"v.-.f.f.s.a.N y.B M +.v.q q q v.",
"h 9.k.0.5.,.w.=.4.u.7.l a a a 5 ",
"h t.5.t.c.z.z.h.5.[ =.q.,.o...: ",
"a 5.r.i.W C V H u.=.k 9.-.a N # ",
"p -.x.W L Y T A S 9.w 6.@.w b $ ",
"i %.j.C ! ` ) R L 4.5 5.X.7 c % ",
"y o.d.A ! ) ` ) L :.4 ,.{ 3 h $ ",
"r | r.S U ! ! ! D X.2 -.' 1 a $ ",
"w m ..2.S T ! D 1.0 : =.n : u O ",
"7 j a b :.-.$.{ 8 ; p +.z t 9 O ",
"v.$ $ , , : - * @ o   . . .     ",
"v.v.v.v.v.v.v.v.v.v.v.v.v.v.v.v.",
"v.v.v.v.v.v.v.v.v.v.v.v.v.v.v.v."
};
