/* XPM */
static const char *ch_[] = {
/* columns rows colors chars-per-pixel */
"16 16 11 1",
"1 c grey8",
"2 c grey12",
"3 c grey16",
"4 c grey20",
"5 c grey24",
"6 c grey28",
"7 c grey32",
"8 c grey36",
"9 c grey40",
"0 c grey44",
". c None",
/* pixels */
"................",
"................",
"......000.......",
".......00.......",
".......99.......",
".......99.......",
".......88.......",
".......88.......",
".......88.......",
".......77.......",
".......44.......",
".......33.......",
".....111111.....",
"................",
"................",
"................"
};
