/* XPM */
static const char *fit[] = {
/* columns rows colors chars-per-pixel */
"16 16 4 1",
"  c grey32",
"x c grey48",
"X c grey64",
". c None",
/* pixels */
"................",
".............xx.",
".............  .",
".............  .",
"............X  .",
"...xx xx....   .",
"..X      ..X  ..",
"..   XX       ..",
"..  ....     ...",
"..  ......xx....",
".X  ............",
".  X............",
".  .............",
".  .............",
".xx.............",
"................"
};
