/* XPM */
static const char *resultset_next[] = {
/* columns rows colors chars-per-pixel */
"16 16 55 1",
"  c #1441B7",
". c #1545B9",
"X c #164ABD",
"o c #1750BD",
"O c #164EC0",
"+ c #1853C0",
"@ c #1859C4",
"# c #1959C6",
"$ c #1A62C6",
"% c #1A62C9",
"& c #236ECD",
"* c #2C72CD",
"= c #3B71CC",
"- c #3C74CF",
"; c #3577D2",
": c #3D77D0",
"> c #3F7AD0",
", c #437FD3",
"< c #4384D6",
"1 c #4784D6",
"2 c #4B88D6",
"3 c #538EDB",
"4 c #6095DD",
"5 c #6197DD",
"6 c #72A1DF",
"7 c #75A3DF",
"8 c #6297E1",
"9 c #6EA0E2",
"0 c #74A3E0",
"q c #74A2E2",
"w c #77A4E0",
"e c #75A4E3",
"r c #79A6E0",
"t c #79A7E6",
"y c #7CA9E1",
"u c #7EA8E1",
"i c #7CA9E8",
"p c #7EA9E8",
"a c #81ABE2",
"s c #80AAE3",
"d c #81ABE3",
"f c #87AFE4",
"g c #80ABE8",
"h c #80ABEA",
"j c #8AB1E4",
"k c #87B0E8",
"l c #90B5E7",
"z c #92B7E8",
"x c #99BBE9",
"c c #99BBEA",
"v c #A1C1EC",
"b c #A3C2ED",
"n c #A8C7EE",
"m c #ADC8EF",
"M c None",
/* pixels */
"MMMMMMMMMMMMMMMM",
"MMMMMMMMMMMMMMMM",
"MMMMhpMMMMMMMMMM",
"MMMMhiqMMMMMMMMM",
"MMMMtmk4MMMMMMMM",
"MMMM9nbe1MMMMMMM",
"MMMM8vzx5*MMMMMM",
"MMMM3cssj2$MMMMM",
"MMMM<l7ea<#MMMMM",
"MMMM;f6y,oMMMMMM",
"MMMM&yr:XMMMMMMM",
"MMMM%7-XMMMMMMMM",
"MMMM#=.MMMMMMMMM",
"MMMMO MMMMMMMMMM",
"MMMMMMMMMMMMMMMM",
"MMMMMMMMMMMMMMMM"
};
