/* XPM */
static const char *slope[] = {
"16 16 37 1",
" 	c None",
".	c #5297DA",
"+	c #3E678F",
"@	c #2A80D3",
"#	c #6D9BC8",
"$	c #2981D5",
"%	c #2485E1",
"&	c #3176B8",
"*	c #318AE0",
"=	c #2C7DCB",
"-	c #2A7ED0",
";	c #5998D5",
">	c #2A7ECF",
",	c #5897D5",
"'	c #6099D1",
")	c #6F9BC6",
"!	c #287FD3",
"~	c #1E90FF",
"{	c #2C7BC8",
"]	c #2783DA",
"^	c #5F99D0",
"/	c #2581D8",
"(	c #5196D8",
"_	c #2E7BC6",
":	c #2C8AE5",
"<	c #2F7AC3",
"[	c #328AE0",
"}	c #2782DA",
"|	c #3488DB",
"1	c #2882D7",
"2	c #348ADD",
"3	c #2B7FCF",
"4	c #2980D4",
"5	c #2486E4",
"6	c #1F8DF7",
"7	c #3E94E8",
"8	c #4B85BC",
"                ",
"                ",
"    .+@         ",
"   #$%&#        ",
"   *=#@-;       ",
"   @;@#>,@      ",
"   @'@@)!~@     ",
"   @'@ @){~@    ",
"   @'@  @]^~@   ",
"   @'@   #/(@@  ",
"   @'@    _:~@@ ",
"   @'@     <[~@@",
"   @'@      }|@@",
"@@@1'@       =2@",
"34567@        @8",
"                "};
