/* XPM */
static char *stimfit_32x32[] = {
/* columns rows colors chars-per-pixel */
"32 32 164 2 ",
"   c black",
".  c #020000",
"X  c #050305",
"o  c #090000",
"O  c #110000",
"+  c #130103",
"@  c #19070E",
"#  c #1E080F",
"$  c #0D0D1B",
"%  c #160E1C",
"&  c #290B17",
"*  c #220F1E",
"=  c #2E0D1A",
"-  c #1A1021",
";  c #111D3A",
":  c #111E3D",
">  c #201124",
",  c #2E1327",
"<  c #2F1327",
"1  c #29172E",
"2  c #37152A",
"3  c #30172E",
"4  c #261D3A",
"5  c #211F3F",
"6  c #361933",
"7  c #391A34",
"8  c #3F1A34",
"9  c #301D3A",
"0  c #441831",
"q  c #16254B",
"w  c #17264B",
"e  c #17254C",
"r  c #17264C",
"t  c #182850",
"y  c #182851",
"u  c #182951",
"i  c #182952",
"p  c #192B56",
"a  c #1E2B57",
"s  c #232143",
"d  c #2D2346",
"f  c #2B284F",
"g  c #302449",
"h  c #2A2953",
"j  c #2A2F5E",
"k  c #2E2E5C",
"l  c #2F2F5E",
"z  c #302E5C",
"x  c #382C58",
"c  c #3D2F5E",
"v  c #2C305F",
"b  c #252F60",
"n  c #2A3265",
"m  c #2E3264",
"M  c #303060",
"N  c #313162",
"B  c #283871",
"V  c #293B77",
"C  c #283C78",
"Z  c #323C77",
"A  c #303C79",
"S  c #323F7D",
"D  c #4C2040",
"F  c #462D5B",
"G  c #4D2D5B",
"H  c #4B3264",
"J  c #2E468C",
"K  c #354284",
"L  c #354285",
"P  c #32478F",
"I  c #3A478E",
"U  c #3E478E",
"Y  c #3E478F",
"T  c #3E4C98",
"R  c #384E9C",
"E  c #3152A3",
"W  c #3253A6",
"Q  c #3253A7",
"!  c #3A52A4",
"~  c #3454A8",
"^  c #3455AA",
"/  c #3356AD",
"(  c #3457AE",
")  c #3757AE",
"_  c #3857AF",
"`  c #3458AF",
"'  c #3558B1",
"]  c #3559B1",
"[  c #3658B0",
"{  c #365BB7",
"}  c #385DBA",
"|  c #385FBE",
" . c #3A5FBF",
".. c #48458A",
"X. c #4F458A",
"o. c #4554A9",
"O. c #4559B2",
"+. c #4958B1",
"@. c #4A5CB7",
"#. c #3A62C3",
"$. c #3B62C4",
"%. c #3D63C8",
"&. c #3B65C9",
"*. c #3B67CD",
"=. c #3C66CC",
"-. c #3D66CC",
";. c #3C66CD",
":. c #3D66CD",
">. c #3C67CD",
",. c #3D67CD",
"<. c #3C67CE",
"1. c #3D67CE",
"2. c #3C67CF",
"3. c #3D67CF",
"4. c #3E67CF",
"5. c #3E68CF",
"6. c #3D68D0",
"7. c #3C69D1",
"8. c #3E68D0",
"9. c #3E68D1",
"0. c #3D69D3",
"q. c #3E69D2",
"w. c #3F69D2",
"e. c #3F69D3",
"r. c #3C6AD3",
"t. c #3F6AD2",
"y. c #3E6AD3",
"u. c #3F6AD3",
"i. c #3E6AD4",
"p. c #3F6AD4",
"a. c #3E6AD5",
"s. c #3E6BD5",
"d. c #3F6BD5",
"f. c #3E6BD6",
"g. c #3F6BD6",
"h. c #3E6BD7",
"j. c #3F6BD7",
"k. c #3E6CD7",
"l. c #3F6CD8",
"z. c #4262C3",
"x. c #4562C3",
"c. c #4063C7",
"v. c #4466CC",
"b. c #4369D3",
"n. c #4468D0",
"m. c #4469D3",
"M. c #406BD5",
"N. c #426BD5",
"B. c #406BD6",
"V. c #406BD7",
"C. c #436BD6",
"Z. c #426BD7",
"A. c #436BD7",
"S. c #406CD7",
"D. c #426CD7",
"F. c #486BD5",
"G. c #406CD8",
"H. c #416DDA",
"J. c #446DDA",
"K. c #456DDA",
"L. c #426EDC",
"P. c #426FDE",
"I. c #4270DF",
"U. c None",
/* pixels */
"U.U.U.U.U.U.U.U.U.U.U.U.U.U.U.U.U.U.U.U.U.U.U.U.U.U.U.U.U.U.U.U.",
"U.U.U.U.U.U.U.U.U.U.U.U.U.U.U.U.U.U.U.U.U.U.U.U.U.U.U.U.U.U.U.U.",
"U.U.U.U.U.U.U.U.U.U.U.U.U.U.U.U.U.U.U.U.U.U.U.U.U.U.U.U.U.U.U.U.",
"U.U.U.U.U.U.U.U.U.U.U.U.U.U.U.U.U.U.U.U.U.U.U.U.U.U.U.U.U.U.U.U.",
"U.U.U.U.^ J.B.J.B.B.F.B.B.B.B.B.B.J.B.B.F.B.B.B.B.B.J.~ U.U.U.U.",
"U.U.U.q B.:.:.:.:.:.v.:.v.:.v.:.:.:.:.:.:.v.%.:.v.:.:.B.t U.U.U.",
"U.U.U.u n.:.:.:.:.:.:.7.:.:.:.:.:.:.:.:.:.:.%.,.:.:.:.B.u U.U.U.",
"U.U.U.t 7.:.:.:.:.:.:.7.7.,.:.:.:.:.%.:.:.:.,.,.:.:.:.B.u U.U.U.",
"U.U.U.u n.,.:.%.,.,.,.C b %.,.:.,.,.:.,.,.,.,.,.:.:.,.B.t U.U.U.",
"U.U.U.t B.,.:.:.,.,.` * & h ,.,.:.,.%.,.,.%.:.,.%.:.,.7.t U.U.U.",
"U.U.U.u B.,.:.:.,.7.P , G 3 A l.%.,.%.,.:.%.:.%.,.:.:.7.u U.U.U.",
"U.U.U.t 7.,.%.:.,.B.A , O.H 7 ^ ,.,.:.,.,.,.,.,.,.:.:.n.u U.U.U.",
"U.U.U.u 7.:.%.:.,.B.N 3 %.@.D x ,.7.,.,.,.,.,.,.%.:.:.B.u U.U.U.",
"U.U.U.t B.:.:.:.,.7.f 9 %.7.X.0 K 7.,.,.%.:.:.%.:.:.:.7.u U.U.U.",
"U.U.U.t B.:.:.:.,.:.4 d ,.,.v.G 9 ) B.:.,.,.:.:.:.:.:.B.u U.U.U.",
"U.U.U.u B.:.%.:.7.%.> z B.:.7.@.0 d :.,.,.%.:.,.%.:.:.B.y U.U.U.",
"U.U.U.t 7.:.:.:.B.^ @ Z 7.,.,.7...= n 7.:.:.:.:.:.:.,.B.t U.U.U.",
"U.U.U.t B.:.:.:.I.V O R 7.,.,.,.n.c # J J.:.:.:.%.:.,.B.t U.U.U.",
"U.U.U.t B.:.,.7.~ $ - :.7.,.:.%.,.x.1 % | 7.:.:.:.:.:.7.u U.U.U.",
"U.U.U.t B.7.:.i X o U B.:.,.,.,.,.J.T O u J.:.:.:.:.:.,.u U.U.U.",
"U.U.U.u 7.| ; X 5 o.B.:.,.,.,.,.:.:.B.s X ` l.7.B.7.7.B.u U.U.U.",
"U.U.U.t I.B X j B.7.:.v.%.:.:.%.:.:.7.! X ; ` ^ ^ ^ | 7.y U.U.U.",
"U.U.U.u B.x.U B.,.:.:.:.,.,.,.,.:.:.:.B.j X X X X X ; J.u U.U.U.",
"U.U.U.t 7.:.B.:.:.:.%.:.,.%.:.,.:.:.:.,.n.U k k k k K B.u U.U.U.",
"U.U.U.u B.:.:.:.:.:.:.,.,.,.:.%.:.:.:.:.:.B.J.J.J.J.B.B.t U.U.U.",
"U.U.U.u B.:.:.%.%.:.:.%.%.:.:.:.:.:.:.:.:.:.:.:.:.:.:.B.t U.U.U.",
"U.U.U.q B.:.:.:.:.:.:.:.,.,.,.,.:.:.:.:.:.:.:.:.:.:.:.B.t U.U.U.",
"U.U.U.U.~ B.B.7.B.B.B.7.7.B.B.n.7.n.7.7.n.B.7.B.7.7.B.^ U.U.U.U.",
"U.U.U.U.U.q u t u t t u t u t u t t t t u t t u u u q U.U.U.U.U.",
"U.U.U.U.U.U.U.U.U.U.U.U.U.U.U.U.U.U.U.U.U.U.U.U.U.U.U.U.U.U.U.U.",
"U.U.U.U.U.U.U.U.U.U.U.U.U.U.U.U.U.U.U.U.U.U.U.U.U.U.U.U.U.U.U.U.",
"U.U.U.U.U.U.U.U.U.U.U.U.U.U.U.U.U.U.U.U.U.U.U.U.U.U.U.U.U.U.U.U."
};
