/* XPM */
static char *stimfit_16x16[] = {
/* columns rows colors chars-per-pixel */
"16 16 82 1 ",
"  c #14162D",
". c #0F1830",
"X c #0F1A33",
"o c #151A34",
"O c #141B37",
"+ c #1C1F3E",
"@ c #241E3C",
"# c #1C203F",
"$ c #25274E",
"% c #3E264B",
"& c #2B2850",
"* c #302D5A",
"= c #382C58",
"- c #2D3060",
"; c #2E376D",
": c #323060",
"> c #3B366C",
", c #2A3870",
"< c #452E5D",
"1 c #304183",
"2 c #32458B",
"3 c #3A458A",
"4 c #354992",
"5 c #334A95",
"6 c #324E9D",
"7 c #3150A1",
"8 c #3351A2",
"9 c #3155A9",
"0 c #3358AF",
"q c #3658B0",
"w c #3459B2",
"e c #3A5AB4",
"r c #395EBC",
"t c #395EBD",
"y c #3A5FBD",
"u c #395FBE",
"i c #3E5DBC",
"p c #4650A1",
"a c #425AB5",
"s c #3961C2",
"d c #3C61C2",
"f c #3C65C9",
"g c #3E64C9",
"h c #3E65CA",
"j c #3C66CC",
"k c #3D66CC",
"l c #3D67CD",
"z c #3F66CD",
"x c #3D67CE",
"c c #3C67CF",
"v c #3D67CF",
"b c #3E67CE",
"n c #3E67CF",
"m c #3D68CF",
"M c #3E68CF",
"N c #3D68D0",
"B c #3D68D1",
"V c #3E68D0",
"C c #3E68D1",
"Z c #3D69D2",
"A c #3D69D3",
"S c #3E69D2",
"D c #3F69D2",
"F c #3D6AD3",
"G c #3F6AD3",
"H c #3F6AD4",
"J c #3E6AD5",
"K c #3F6BD6",
"L c #3D6CD7",
"P c #3F6CD7",
"I c #3F6CD8",
"U c #4167CC",
"Y c #4268D1",
"T c #4369D2",
"R c #406AD3",
"E c #406AD4",
"W c #406AD5",
"Q c #416BD7",
"! c #406CD8",
"~ c #416DDB",
"^ c #426FDE",
"/ c None",
/* pixels */
"////////////////",
"////////////////",
"//rzzfzzzzfzzr//",
"//SMMzMzzzzMMS//",
"//MzS1-SjjjzzM//",
"//zMS-%3SzjjMz//",
"//zzz*e<wSzzzM//",
"//MSu&Sp*SzzMz//",
"//U^7$SI>;!MMM//",
"//!7.2IjU@7~SM//",
"//qo5!jjI5Ow9f//",
"//frSzzjMS,#+6//",
"//S!zzMzMz!Y!U//",
"//rSzzzMzzzz!r//",
"///XX..XX.X.X///",
"////////////////"
};
