/* XPM */
static const char *zoom_in[] = {
/* columns rows colors chars-per-pixel */
"16 16 84 1",
"  c #2A6B26",
". c #2E6F29",
"X c #30712B",
"o c #32742C",
"O c #33762E",
"+ c #357930",
"@ c #874828",
"# c #A55C33",
"$ c #AB6437",
"% c #AB6737",
"& c #AB643D",
"* c #3E8337",
"= c #448B3D",
"- c #4D9645",
"; c #539E4B",
": c #5A9B53",
"> c #5CA852",
", c #5EAB54",
"< c #5FAD56",
"1 c #65A75E",
"2 c #61B057",
"3 c #63B259",
"4 c #67B65C",
"5 c #6BAC63",
"6 c #76B76D",
"7 c #B98048",
"8 c #BC854A",
"9 c #BC844B",
"0 c #BC834F",
"q c #BC864C",
"w c #BD864C",
"e c #BD894C",
"r c #BE894D",
"t c #BE8A4D",
"y c #BE8A4F",
"u c #BC8451",
"i c #C18E4F",
"p c #C18F4F",
"a c #C28F50",
"s c #C18E58",
"d c #C39150",
"f c #C39153",
"g c #C39156",
"h c #C49555",
"j c #C69655",
"k c #C79757",
"l c #C69956",
"z c #C79A57",
"x c #C89C57",
"c c #C99F5B",
"v c #CDA45B",
"b c #CCA15D",
"n c #CDA55E",
"m c #CDA65E",
"M c #CEA65E",
"N c #CEA75E",
"B c #C99B61",
"V c #CDA561",
"C c #CEA660",
"Z c #CEA761",
"A c #CEA662",
"S c #CFA762",
"D c #CFA861",
"F c #CFA864",
"G c #D7B57D",
"H c #D6B57F",
"J c #82C27D",
"K c #86C57D",
"L c #DABB80",
"P c #8BC683",
"I c #8BC785",
"U c #90CA88",
"Y c #9ACF92",
"T c #9ED195",
"R c #9FD297",
"E c #A6D59D",
"W c #DEC48D",
"Q c #DFC58F",
"! c #E0C793",
"~ c #E3CC99",
"^ c #E7D3A0",
"/ c #E8D5A3",
"( c #E9D7A5",
") c None",
/* pixels */
"))))))))))))))))",
")))NCFFbc)))))))",
"))DN))))lk))))))",
")Dv))))))dd)))))",
"NN))))))))iy))))",
"C))))))))))y))))",
"C))))))42>)y))))",
"C))))))<E;)w))))",
"c))))3,6T5=*))))",
"lk)))>TYKUP+))))",
")ki));-1I:o.))))",
"))dy)))*Jo~Q0)))",
")))9ww9+X /(L&))",
")))))))))sQ^!B@)",
"))))))))))uHHg%)",
")))))))))))#7%))"
};
