<?xml version="1.0" encoding="UTF-8" standalone="no"?>
<!-- Created with Inkscape (http://www.inkscape.org/) -->
<svg
   xmlns:dc="http://purl.org/dc/elements/1.1/"
   xmlns:cc="http://creativecommons.org/ns#"
   xmlns:rdf="http://www.w3.org/1999/02/22-rdf-syntax-ns#"
   xmlns:svg="http://www.w3.org/2000/svg"
   xmlns="http://www.w3.org/2000/svg"
   xmlns:sodipodi="http://sodipodi.sourceforge.net/DTD/sodipodi-0.dtd"
   xmlns:inkscape="http://www.inkscape.org/namespaces/inkscape"
   id="svg9124"
   sodipodi:version="0.32"
   inkscape:version="0.46"
   width="180"
   height="190"
   xml:space="preserve"
   sodipodi:docname="stflogo2.svg"
   inkscape:output_extension="org.inkscape.output.svg.inkscape"
   version="1.0"
   inkscape:export-filename="/home/nin/dev/stimfit/doc/sphinx/logo5.png"
   inkscape:export-xdpi="90"
   inkscape:export-ydpi="90"><metadata
     id="metadata9129"><rdf:RDF><cc:Work
         rdf:about=""><dc:format>image/svg+xml</dc:format><dc:type
           rdf:resource="http://purl.org/dc/dcmitype/StillImage" /></cc:Work></rdf:RDF></metadata><defs
     id="defs9127"><clipPath
       id="clipPath3184"
       clipPathUnits="userSpaceOnUse"><path
         id="path3186"
         d="M 72,43.2 L 518.4,43.2 L 518.4,388.8 L 72,388.8 L 72,43.2 z" /></clipPath><clipPath
       clipPathUnits="userSpaceOnUse"
       id="clipPath2719"><path
         d="M 38.25,18.81 L 275.4,18.81 L 275.4,169.29 L 38.25,169.29 L 38.25,18.81 z"
         id="path2721" /></clipPath><inkscape:perspective
       sodipodi:type="inkscape:persp3d"
       inkscape:vp_x="0 : 526.18109 : 1"
       inkscape:vp_y="0 : 1000 : 0"
       inkscape:vp_z="744.09448 : 526.18109 : 1"
       inkscape:persp3d-origin="372.04724 : 350.78739 : 1"
       id="perspective9131" /><clipPath
       clipPathUnits="userSpaceOnUse"
       id="clipPath9141"><path
         d="M 0,0 L 498.89764,0 L 498.89764,354.33072 L 0,354.33072 L 0,0 z"
         id="path9143" /></clipPath><mask
       maskUnits="userSpaceOnUse"
       x="0"
       y="0"
       width="1"
       height="1"
       id="mask9145"><g
         id="g9147"><g
           clip-path="url(#clipPath9141)"
           id="g9149"><path
             d="M 0,0 L 498.89764,0 L 498.89764,354.33072 L 0,354.33072 L 0,0 z"
             style="fill:#ffffff;fill-opacity:0.63899997;fill-rule:nonzero;stroke:none"
             id="path9151" /></g></g></mask><clipPath
       clipPathUnits="userSpaceOnUse"
       id="clipPath9157"><path
         d="M 0,0 L 498.89764,0 L 498.89764,354.33072 L 0,354.33072 L 0,0 z"
         id="path9159" /></clipPath><clipPath
       clipPathUnits="userSpaceOnUse"
       id="clipPath9161"><path
         d="M 0,0 L 499,0 L 499,355 L 0,355 L 0,0 z"
         id="path9163" /></clipPath><pattern
       patternUnits="userSpaceOnUse"
       x="0"
       y="0"
       width="499"
       height="355"
       id="pattern9165"><g
         id="g9167" /><g
         id="g9169"><g
           clip-path="url(#clipPath9161)"
           id="g9171"><g
             id="g9173"><g
               transform="matrix(1,0,0,-1,0,355)"
               id="g9175"><path
                 d="M 234.688,200.148 C 260.945,335.176 172.461,355.66 141.207,314.523 C 114.41,279.246 130.859,200.113 130.859,200.113"
                 style="fill:none;stroke:#008000;stroke-opacity:1;stroke-width:4.7192;stroke-linecap:butt;stroke-linejoin:miter;stroke-miterlimit:4;stroke-dasharray:none"
                 id="path9177" /></g></g></g></g></pattern><clipPath
       clipPathUnits="userSpaceOnUse"
       id="clipPath9191"><path
         d="M 0,0 L 498.89764,0 L 498.89764,354.33072 L 0,354.33072 L 0,0 z"
         id="path9193" /></clipPath><mask
       maskUnits="userSpaceOnUse"
       x="0"
       y="0"
       width="1"
       height="1"
       id="mask9195"><g
         id="g9197"><g
           clip-path="url(#clipPath9191)"
           id="g9199"><path
             d="M 0,0 L 498.89764,0 L 498.89764,354.33072 L 0,354.33072 L 0,0 z"
             style="fill:#ffffff;fill-opacity:0.63934398;fill-rule:nonzero;stroke:none"
             id="path9201" /></g></g></mask><clipPath
       clipPathUnits="userSpaceOnUse"
       id="clipPath9207"><path
         d="M 0,0 L 498.89764,0 L 498.89764,354.33072 L 0,354.33072 L 0,0 z"
         id="path9209" /></clipPath><clipPath
       clipPathUnits="userSpaceOnUse"
       id="clipPath9211"><path
         d="M 0,0 L 499,0 L 499,355 L 0,355 L 0,0 z"
         id="path9213" /></clipPath><pattern
       patternUnits="userSpaceOnUse"
       x="0"
       y="0"
       width="499"
       height="355"
       id="pattern9215"><g
         id="g9217" /><g
         id="g9219"><g
           clip-path="url(#clipPath9211)"
           id="g9221"><g
             id="g9223"><path
               d="M 259.52,220.379 C 331.742,51.25 379.004,149.859 228.008,154.641 C 77.012,159.422 120.348,57.945 199.117,222.293 C 277.891,386.641 187.293,389.512 259.52,220.379 z"
               style="fill:#008000;fill-opacity:1;fill-rule:nonzero;stroke:none"
               id="path9225" /></g></g></g></pattern></defs><sodipodi:namedview
     inkscape:window-height="749"
     inkscape:window-width="1280"
     inkscape:pageshadow="2"
     inkscape:pageopacity="0.0"
     guidetolerance="10.0"
     gridtolerance="10.0"
     objecttolerance="10.0"
     borderopacity="1.0"
     bordercolor="#666666"
     pagecolor="#ffffff"
     id="base"
     showgrid="false"
     inkscape:zoom="2.2619788"
     inkscape:cx="47.043945"
     inkscape:cy="89.97815"
     inkscape:window-x="0"
     inkscape:window-y="31"
     inkscape:current-layer="g9133" /><g
     id="g9133"
     inkscape:groupmode="layer"
     inkscape:label="BA"
     transform="matrix(1.25,0,0,-1.25,0,442.9134)"><path
   id="path9771"
   style="fill:#f5f5f5;fill-opacity:0.96078431;fill-rule:nonzero;stroke:#000000;stroke-width:1;stroke-opacity:1"
   d="M 56.856797,272.74114 C 6.7829721,166.34263 -23.712922,229.5545 77.186049,230.59948 C 178.08763,231.64181 148.04188,167.803 97.216101,273.15913 C 46.391009,378.51524 106.93063,379.14219 56.856797,272.74114 z" />

<path
   style="font-size:32px;font-style:normal;font-variant:normal;font-weight:normal;font-stretch:normal;text-align:start;line-height:125%;writing-mode:lr-tb;text-anchor:start;fill:#f5c400;fill-opacity:0.96078431;stroke:none;stroke-width:1px;stroke-linecap:butt;stroke-linejoin:miter;stroke-opacity:1;font-family:Arial;-inkscape-font-specification:Arial"
   d="M 72.000695,284.81242 C 70.513665,285.49643 68.825326,284.04298 69.181603,282.55748 C 69.198596,281.24606 67.099674,281.06813 66.289624,281.93982 C 65.125127,282.51944 63.23192,282.81371 62.536391,281.52582 C 61.896382,280.20101 62.926668,278.28624 64.538983,278.2396 C 65.972642,278.13569 67.523587,276.75547 66.982869,275.32724 C 66.482038,272.27357 65.387122,269.36307 64.639248,266.36815 C 62.691434,259.38659 59.872774,252.6932 57.652737,245.80053 C 57.3142,244.19074 59.408272,242.85299 60.879463,243.56704 C 62.480232,244.24465 62.71879,246.12944 63.401986,247.50214 C 64.962116,251.95633 66.755604,256.32414 68.394862,260.75128 C 69.762662,264.40228 71.14521,268.04969 72.357881,271.75527 C 72.299742,272.87045 73.04352,274.60813 74.498287,274.10571 C 75.528095,273.64423 75.854846,272.11024 77.120259,272.10991 C 78.610908,272.17082 78.377512,274.15093 77.506697,274.90581 C 76.248626,276.28047 73.976128,277.1354 73.747901,279.14989 C 73.713848,280.52572 75.669922,281.15862 76.642091,280.18344 C 77.462435,279.54886 78.910718,277.72182 79.791593,279.10435 C 80.095998,280.43762 78.578733,281.24575 77.570353,281.84277 C 75.834682,283.0197 74.075125,284.29378 72.000695,284.81242 z M 81.938685,277.66623 C 81.007941,276.52308 81.87041,274.91734 82.708124,273.89529 C 83.119084,272.53367 85.73959,273.13386 85.23492,274.53883 C 84.853757,276.02435 83.628678,277.25992 82.144777,277.80654 L 81.951876,277.67521 L 81.938685,277.66623 z M 93.241974,267.79104 C 92.071091,268.14889 90.175751,267.89228 90.12267,266.4627 C 90.501444,265.35848 89.66222,263.56369 88.243243,264.08194 C 87.013679,264.36338 85.784313,262.70917 86.816292,261.76451 C 88.330992,259.05761 87.47055,255.92583 86.281176,253.35228 C 84.250024,247.98821 81.71312,242.70187 80.951569,236.97099 C 81.085231,234.25563 83.92913,232.15576 86.664838,232.18531 C 87.875471,232.06059 89.201971,233.09315 88.79627,234.33387 C 88.405681,235.95985 86.024261,236.20417 85.656247,237.87139 C 85.391237,239.6985 86.178768,241.46839 86.662843,243.18885 C 88.026785,247.24833 89.603544,251.25235 90.91444,255.31654 C 91.830972,256.45416 92.900011,254.792 93.808876,254.42985 C 95.006102,253.97576 95.694546,255.41205 95.489336,256.36629 C 95.471386,257.3753 94.57128,257.9468 93.853426,258.49208 C 92.499563,259.92096 92.833263,262.00953 93.529733,263.59033 C 93.821648,264.86753 94.475515,266.20372 93.917349,267.52893 C 93.713899,267.66193 93.505615,267.82817 93.241974,267.79104 z M 81.356213,271.29859 C 79.684788,268.90475 79.49869,265.87279 78.134868,263.33269 C 75.165973,255.58423 72.197099,247.83575 69.228225,240.08729 C 70.4948,239.79179 71.458909,238.41507 72.851523,238.69982 C 76.684448,248.34223 80.396061,258.03158 83.98491,267.76567 C 83.985855,269.23321 82.493103,270.0859 81.701183,271.19085 C 81.606469,271.24264 81.48115,271.36571 81.356213,271.29859 z"
   id="text5080" /><path
   style="font-size:24px;font-style:normal;font-variant:normal;font-weight:normal;font-stretch:normal;text-align:start;line-height:125%;writing-mode:lr-tb;text-anchor:start;fill:#f5f5f5;fill-opacity:0.79215686;stroke:#000061;stroke-width:0.99999988px;stroke-linecap:butt;stroke-linejoin:miter;stroke-opacity:0.96078431;font-family:Arial;-inkscape-font-specification:Arial"
   d="M 17.461369,319.02972 C 14.779609,320.16832 11.372323,319.50147 9.5241345,316.48583 C 8.2444293,314.22178 8.5178429,310.97442 9.8477929,308.92079 C 11.614511,306.35748 14.065731,304.60955 15.502418,301.65488 C 16.335373,299.91121 16.749761,297.73943 16.147643,295.73954 C 15.634078,293.67104 14.478903,291.76662 12.949438,290.77053 C 10.902776,289.90481 8.8577318,291.37976 7.3967121,293.06466 C 6.0586322,294.0953 4.9425022,295.98316 5.1599024,298.08386 C 5.295196,299.40043 6.1169699,300.91527 5.3216514,302.10663 C 4.3715694,303.17305 2.924748,302.32564 2.2573115,301.16859 C 0.93465213,299.05333 1.2633704,296.07309 1.8794752,293.71925 C 2.5824019,291.2455 4.2963844,289.34342 6.2310027,288.50732 C 8.069065,287.3024 9.9717043,285.59632 12.172296,286.04792 C 14.598182,286.61833 16.120378,289.4479 17.301978,291.98041 C 18.371413,294.4399 19.085896,297.19811 19.139599,300.00353 C 19.21398,302.46543 18.375791,304.8048 17.067987,306.53477 C 15.715738,308.52333 13.884936,309.91371 12.659493,312.0436 C 12.050599,312.91731 12.098425,314.18754 12.6453,315.11135 C 13.772963,317.22866 16.132974,317.1197 17.713936,316.08908 C 18.714221,315.55714 19.695459,314.92443 20.328668,313.75818 C 21.214947,312.42506 21.316379,310.5971 21.228989,308.91139 C 21.280373,307.88764 21.701608,306.60686 22.639453,306.69099 C 23.663407,307.24456 23.493251,309.07516 23.504161,310.23912 C 23.261462,313.45422 21.679034,316.32781 19.536441,317.92838 C 18.855486,318.32436 18.180345,318.75327 17.461369,319.02972 z M 29.446217,307.34393 C 28.513923,307.75623 27.254491,307.18401 27.048522,305.82969 C 26.641736,304.95275 26.315837,302.77073 25.817651,302.68526 C 25.249217,303.69465 23.80616,303.24396 23.865352,301.87937 C 23.984549,300.32309 24.454355,298.56478 23.621104,297.15704 C 21.921707,293.13609 19.960184,289.29938 18.267301,285.27655 C 17.282101,282.77638 16.049564,279.91904 16.836337,277.09921 C 17.175906,276.03886 17.696707,274.49661 18.771091,274.64053 C 19.694926,275.16897 19.309108,276.75525 19.005079,277.65416 C 18.207402,279.53234 19.056906,281.67738 19.797032,283.38584 C 21.13964,286.17668 22.441944,288.9916 23.79511,291.77407 C 24.425183,293.09287 24.81985,294.61516 25.527709,295.85174 C 26.392353,296.80848 27.091894,294.95303 27.95112,295.53246 C 29.050707,296.15269 28.89455,298.05866 28.211745,299.01609 C 27.312802,300.43514 28.075526,302.2947 28.644205,303.70183 C 29.139953,304.8175 29.623549,306.02891 29.573718,307.33561 L 29.446217,307.34393 z M 34.937421,304.18605 C 33.738659,304.23199 33.328978,302.47251 32.971186,301.31818 C 32.931023,299.72709 34.889022,298.88781 35.587303,300.27978 C 36.501117,301.21823 36.615673,303.51495 35.363584,304.02728 C 35.224001,304.09989 35.092664,304.17904 34.937421,304.18605 z M 53.970888,286.09731 C 51.596618,287.14763 49.005371,285.88119 46.89754,284.3484 C 45.76048,284.29213 45.955969,286.14305 45.873633,287.13224 C 45.518081,289.35794 43.51265,290.40091 41.868552,290.17606 C 40.59824,290.03529 39.447355,289.19778 38.258363,288.64484 C 37.078865,289.29955 38.694093,291.35247 37.580869,292.06175 C 36.434813,292.50779 35.659512,291.02535 35.074042,289.99751 C 31.84373,284.58538 28.297374,279.40931 25.711755,273.43687 C 24.855277,271.28881 23.944978,269.07714 23.709412,266.67247 C 23.755717,265.42608 25.337467,264.90367 25.555011,266.33992 C 25.964866,267.77934 26.12963,269.33477 26.826102,270.63688 C 28.27095,274.40421 30.237151,277.86041 32.599694,280.7847 C 34.571001,283.17548 36.949887,285.55406 39.752737,285.69118 C 40.866946,285.93363 41.630712,284.3555 41.302207,283.08347 C 40.948277,281.58021 40.013477,280.36982 39.358774,279.04312 C 36.911617,274.70115 33.949578,270.74517 32.242745,265.80144 C 31.950007,264.73664 31.325656,263.5629 31.571834,262.43612 C 32.254824,260.89297 34.317865,261.48544 34.647091,263.15723 C 35.986621,267.13045 38.018634,270.67534 40.200314,273.96977 C 42.173869,276.80097 44.129478,279.83375 46.745086,281.71608 C 48.426228,283.02367 50.659866,283.6534 52.415826,282.35122 C 53.146538,281.60955 53.267664,280.25198 52.760955,279.24939 C 51.019573,274.34654 48.565704,269.917 46.499758,265.23042 C 46.325079,264.11182 44.730133,263.20795 45.683436,262.14473 C 46.559644,261.47923 47.516301,262.62873 48.491527,262.67423 C 49.892486,262.67191 50.207655,264.39364 50.776517,265.69121 C 52.774237,270.42601 54.877867,275.10717 56.534952,280.05235 C 57.033591,282.52022 56.035402,285.57203 53.970888,286.09731 z M 31.706625,295.9159 C 30.132538,295.36336 29.729671,293.06681 28.801441,291.61124 C 25.543652,285.50945 22.580864,279.13463 20.218886,272.40129 C 19.691852,271.40202 20.459948,269.98729 21.339887,270.49445 C 22.318802,271.24439 22.219254,273.04801 22.806472,274.2111 C 25.317047,281.26274 29.34463,287.18465 32.591542,293.68064 C 32.829159,294.57085 32.525054,295.81763 31.706625,295.9159 z"
   id="text3974" /></g></svg>