<?xml version="1.0" encoding="UTF-8" standalone="no"?>
<!-- Created with Inkscape (http://www.inkscape.org/) -->
<svg
   xmlns:dc="http://purl.org/dc/elements/1.1/"
   xmlns:cc="http://creativecommons.org/ns#"
   xmlns:rdf="http://www.w3.org/1999/02/22-rdf-syntax-ns#"
   xmlns:svg="http://www.w3.org/2000/svg"
   xmlns="http://www.w3.org/2000/svg"
   xmlns:sodipodi="http://sodipodi.sourceforge.net/DTD/sodipodi-0.dtd"
   xmlns:inkscape="http://www.inkscape.org/namespaces/inkscape"
   id="svg9124"
   sodipodi:version="0.32"
   inkscape:version="0.46"
   width="160"
   height="200"
   xml:space="preserve"
   sodipodi:docname="stflogo.svg"
   inkscape:output_extension="org.inkscape.output.svg.inkscape"
   version="1.0"
   inkscape:export-filename="/home/nin/dev/stimfit/doc/sphinx/stflogo.png"
   inkscape:export-xdpi="90"
   inkscape:export-ydpi="90"><metadata
     id="metadata9129"><rdf:RDF><cc:Work
         rdf:about=""><dc:format>image/svg+xml</dc:format><dc:type
           rdf:resource="http://purl.org/dc/dcmitype/StillImage" /></cc:Work></rdf:RDF></metadata><defs
     id="defs9127"><clipPath
       id="clipPath3184"
       clipPathUnits="userSpaceOnUse"><path
         id="path3186"
         d="M 72,43.2 L 518.4,43.2 L 518.4,388.8 L 72,388.8 L 72,43.2 z" /></clipPath><clipPath
       clipPathUnits="userSpaceOnUse"
       id="clipPath2719"><path
         d="M 38.25,18.81 L 275.4,18.81 L 275.4,169.29 L 38.25,169.29 L 38.25,18.81 z"
         id="path2721" /></clipPath><inkscape:perspective
       sodipodi:type="inkscape:persp3d"
       inkscape:vp_x="0 : 526.18109 : 1"
       inkscape:vp_y="0 : 1000 : 0"
       inkscape:vp_z="744.09448 : 526.18109 : 1"
       inkscape:persp3d-origin="372.04724 : 350.78739 : 1"
       id="perspective9131" /><clipPath
       clipPathUnits="userSpaceOnUse"
       id="clipPath9141"><path
         d="M 0,0 L 498.89764,0 L 498.89764,354.33072 L 0,354.33072 L 0,0 z"
         id="path9143" /></clipPath><mask
       maskUnits="userSpaceOnUse"
       x="0"
       y="0"
       width="1"
       height="1"
       id="mask9145"><g
         id="g9147"><g
           clip-path="url(#clipPath9141)"
           id="g9149"><path
             d="M 0,0 L 498.89764,0 L 498.89764,354.33072 L 0,354.33072 L 0,0 z"
             style="fill:#ffffff;fill-opacity:0.63899997;fill-rule:nonzero;stroke:none"
             id="path9151" /></g></g></mask><clipPath
       clipPathUnits="userSpaceOnUse"
       id="clipPath9157"><path
         d="M 0,0 L 498.89764,0 L 498.89764,354.33072 L 0,354.33072 L 0,0 z"
         id="path9159" /></clipPath><clipPath
       clipPathUnits="userSpaceOnUse"
       id="clipPath9161"><path
         d="M 0,0 L 499,0 L 499,355 L 0,355 L 0,0 z"
         id="path9163" /></clipPath><pattern
       patternUnits="userSpaceOnUse"
       x="0"
       y="0"
       width="499"
       height="355"
       id="pattern9165"><g
         id="g9167" /><g
         id="g9169"><g
           clip-path="url(#clipPath9161)"
           id="g9171"><g
             id="g9173"><g
               transform="matrix(1,0,0,-1,0,355)"
               id="g9175"><path
                 d="M 234.688,200.148 C 260.945,335.176 172.461,355.66 141.207,314.523 C 114.41,279.246 130.859,200.113 130.859,200.113"
                 style="fill:none;stroke:#008000;stroke-opacity:1;stroke-width:4.7192;stroke-linecap:butt;stroke-linejoin:miter;stroke-miterlimit:4;stroke-dasharray:none"
                 id="path9177" /></g></g></g></g></pattern><clipPath
       clipPathUnits="userSpaceOnUse"
       id="clipPath9191"><path
         d="M 0,0 L 498.89764,0 L 498.89764,354.33072 L 0,354.33072 L 0,0 z"
         id="path9193" /></clipPath><mask
       maskUnits="userSpaceOnUse"
       x="0"
       y="0"
       width="1"
       height="1"
       id="mask9195"><g
         id="g9197"><g
           clip-path="url(#clipPath9191)"
           id="g9199"><path
             d="M 0,0 L 498.89764,0 L 498.89764,354.33072 L 0,354.33072 L 0,0 z"
             style="fill:#ffffff;fill-opacity:0.63934398;fill-rule:nonzero;stroke:none"
             id="path9201" /></g></g></mask><clipPath
       clipPathUnits="userSpaceOnUse"
       id="clipPath9207"><path
         d="M 0,0 L 498.89764,0 L 498.89764,354.33072 L 0,354.33072 L 0,0 z"
         id="path9209" /></clipPath><clipPath
       clipPathUnits="userSpaceOnUse"
       id="clipPath9211"><path
         d="M 0,0 L 499,0 L 499,355 L 0,355 L 0,0 z"
         id="path9213" /></clipPath><pattern
       patternUnits="userSpaceOnUse"
       x="0"
       y="0"
       width="499"
       height="355"
       id="pattern9215"><g
         id="g9217" /><g
         id="g9219"><g
           clip-path="url(#clipPath9211)"
           id="g9221"><g
             id="g9223"><path
               d="M 259.52,220.379 C 331.742,51.25 379.004,149.859 228.008,154.641 C 77.012,159.422 120.348,57.945 199.117,222.293 C 277.891,386.641 187.293,389.512 259.52,220.379 z"
               style="fill:#008000;fill-opacity:1;fill-rule:nonzero;stroke:none"
               id="path9225" /></g></g></g></pattern></defs><sodipodi:namedview
     inkscape:window-height="749"
     inkscape:window-width="1280"
     inkscape:pageshadow="2"
     inkscape:pageopacity="0.0"
     guidetolerance="10.0"
     gridtolerance="10.0"
     objecttolerance="10.0"
     borderopacity="1.0"
     bordercolor="#666666"
     pagecolor="#ffffff"
     id="base"
     showgrid="false"
     inkscape:zoom="2.2619788"
     inkscape:cx="-12.689523"
     inkscape:cy="89.97815"
     inkscape:window-x="0"
     inkscape:window-y="31"
     inkscape:current-layer="g9133" /><g
     id="g9133"
     inkscape:groupmode="layer"
     inkscape:label="BA"
     transform="matrix(1.25,0,0,-1.25,0,442.9134)"><path
   id="path9771"
   style="fill:#f5f5f5;fill-opacity:0.96078431;fill-rule:nonzero;stroke:#000000;stroke-width:1;stroke-opacity:1"
   d="M 43.030488,276.84398 C -2.1516711,181.73705 -31.720294,237.18652 62.741651,239.87729 C 157.20609,242.56581 130.09542,185.50187 80.81501,277.9203 C 31.535227,370.33872 88.212641,371.95318 43.030488,276.84398 z" />

<path
   style="font-size:32px;font-style:normal;font-variant:normal;font-weight:normal;font-stretch:normal;text-align:start;line-height:125%;writing-mode:lr-tb;text-anchor:start;fill:#f5c400;fill-opacity:0.96078431;stroke:none;stroke-width:1px;stroke-linecap:butt;stroke-linejoin:miter;stroke-opacity:1;font-family:Arial;-inkscape-font-specification:Arial"
   d="M 70.767082,270.33537 C 69.784512,270.46946 69.071332,269.25976 69.545232,268.42048 C 69.791692,267.6228 68.611132,267.11377 67.985832,267.49162 C 67.208442,267.62349 66.061532,267.44209 65.892082,266.52287 C 65.761372,265.59169 66.702142,264.61881 67.642082,264.89787 C 68.489142,265.10787 69.634262,264.56076 69.579582,263.58537 C 69.841252,261.62487 69.733852,259.63849 69.842192,257.66675 C 69.976642,253.03137 69.555952,248.40588 69.517082,243.77287 C 69.611972,242.72516 71.063232,242.30758 71.784372,243.0243 C 72.586952,243.74348 72.384672,244.94008 72.531692,245.90875 C 72.629312,248.92663 72.877352,251.93628 73.025572,254.95274 C 73.157012,257.44341 73.297622,259.93471 73.329582,262.42912 C 73.094762,263.09911 73.210922,264.30223 74.142082,264.27287 C 74.820332,264.18747 75.285922,263.31295 76.017082,263.55412 C 76.867322,263.87565 76.375172,265.04044 75.735832,265.33537 C 74.760922,265.93494 73.293702,266.0236 72.798332,267.21037 C 72.530392,268.04413 73.546322,268.80378 74.283962,268.39365 C 74.872432,268.16256 76.038872,267.32299 76.298332,268.33537 C 76.233612,269.2077 75.211182,269.41184 74.520852,269.58411 C 73.305682,269.97182 72.059182,270.41431 70.767082,270.33537 z M 77.798332,267.86662 C 77.466862,266.99093 78.254912,266.17477 78.923332,265.71037 C 79.406472,264.95718 80.812182,265.82358 80.267082,266.58537 C 79.778802,267.41992 78.848052,267.94083 77.892082,267.99162 L 77.804332,267.87462 L 77.798332,267.86662 z M 86.110832,263.99162 C 85.369772,263.98683 84.321032,263.46858 84.548332,262.58537 C 84.966422,261.98324 84.805422,260.72702 83.892082,260.77287 C 83.130912,260.71023 82.719132,259.46545 83.485832,259.08537 C 84.849412,257.72111 84.917412,255.64432 84.694632,253.84571 C 84.489062,250.18228 83.977262,246.46986 84.571392,242.82458 C 85.138602,241.19173 87.160602,240.45174 88.735832,240.99162 C 89.457792,241.14637 90.037862,242.03001 89.579582,242.71037 C 89.060512,243.6289 87.640542,243.32386 87.127072,244.27189 C 86.644262,245.3372 86.779892,246.56835 86.749122,247.71141 C 86.804612,250.45082 86.993082,253.19695 87.017082,255.92912 C 87.341332,256.79872 88.258912,255.98751 88.849362,255.93969 C 89.623012,255.89073 89.761582,256.89923 89.470832,257.44286 C 89.278392,258.05568 88.655222,258.23302 88.142082,258.42912 C 87.102042,259.04353 86.917962,260.38272 87.035092,261.48101 C 86.973282,262.31672 87.109942,263.2575 86.548332,263.96037 C 86.406782,264.00278 86.256452,264.06459 86.110832,263.99162 z M 78.610832,263.86662 C 78.077122,262.08581 78.516712,260.19861 78.187112,258.38715 C 77.870012,253.08864 77.552922,247.79013 77.235832,242.49162 C 78.020922,242.55274 78.826372,241.89585 79.579582,242.33537 C 80.054122,248.9554 80.450102,255.58093 80.767082,262.21037 C 80.502812,263.10682 79.486502,263.34285 78.829582,263.86662 C 78.765512,263.88018 78.670902,263.93144 78.610832,263.86662 z"
   id="text5080" /><path
   style="font-size:20px;font-style:normal;font-variant:normal;font-weight:normal;font-stretch:normal;fill:#000061;fill-opacity:0.79215686;stroke:none;stroke-width:1px;stroke-linecap:butt;stroke-linejoin:miter;stroke-opacity:1;font-family:Arial;-inkscape-font-specification:Arial"
   d="M 66.618608,243.73906 C 65.650664,244.29603 65.75481,245.56741 65.804756,246.5256 C 65.860876,249.81807 66.188466,253.11951 65.89001,256.40674 C 65.770392,257.78285 65.356838,259.25996 64.23746,260.15454 C 63.734838,260.61453 62.810341,260.61051 62.534026,259.90715 C 62.232802,259.06381 62.598325,258.17424 62.516796,257.30333 C 62.465027,253.57269 62.353587,249.84078 62.123187,246.11719 C 62.147329,245.46525 61.858785,244.39164 60.997329,244.74289 C 60.21947,245.14188 60.57997,246.14118 60.528959,246.83505 C 60.625155,249.52306 61.008512,252.19648 60.962923,254.89106 C 60.960832,256.97843 60.91594,259.1856 59.90944,261.06814 C 59.226515,261.7405 58.081046,261.84678 57.30624,261.26181 C 56.439212,260.77892 56.472006,259.67194 56.582661,258.81895 C 56.748936,256.53457 56.853946,254.24707 56.783299,251.95665 C 56.790012,250.35156 56.756473,248.74591 56.624447,247.14569 C 56.291217,246.49701 56.151849,245.59634 55.364339,245.32994 C 54.432052,245.56725 54.703199,246.87162 54.750682,247.59987 C 54.880002,249.3832 54.756501,251.17984 54.839194,252.96743 C 54.839684,254.83629 54.858784,256.7453 54.411691,258.56718 C 54.145966,259.37605 53.827638,260.3023 53.978296,261.12685 C 54.42319,261.84816 55.410024,261.51364 56.076907,261.84133 C 57.182856,262.17306 58.276335,262.95183 59.47845,262.57521 C 60.444766,262.26289 61.308229,261.36159 62.39584,261.64336 C 63.400299,261.96667 64.476541,261.50778 65.186285,260.77854 C 66.548637,259.67365 67.003782,257.88862 67.160866,256.21694 C 67.494874,252.97876 67.269807,249.71688 67.377689,246.46902 C 67.300342,245.65871 67.520233,244.75957 67.16983,244.00945 C 67.043139,243.83492 66.843111,243.70245 66.618608,243.73906 z M 34.298005,237.70881 C 32.668073,237.68999 30.964748,238.81644 30.678451,240.48645 C 30.675399,241.23253 31.3512,242.1014 32.159802,241.8367 C 32.89693,241.23759 33.451485,240.08356 34.558234,240.21577 C 37.155406,240.61877 39.101327,242.93661 39.684733,245.40483 C 39.871882,246.31401 39.80571,247.3267 39.279133,248.11567 C 38.323976,248.89363 37.040101,248.3015 36.135642,247.73768 C 34.659891,246.97272 33.131581,245.97857 31.400386,246.08284 C 29.964018,246.40667 29.3455,248.18915 29.857637,249.46994 C 30.174885,251.58159 31.819617,253.0991 33.358491,254.41914 C 34.848494,255.75422 36.932499,256.68527 38.955909,256.21117 C 39.949773,255.84125 39.61596,254.00853 38.523578,254.08397 C 37.685539,254.10893 36.909192,254.98531 36.061212,254.49513 C 34.511041,253.94118 33.148009,252.85962 32.183801,251.53223 C 31.820194,250.79289 31.299484,249.96356 31.457668,249.12272 C 31.955198,248.30915 33.140297,248.37338 33.803449,248.94097 C 35.549319,249.90068 37.337343,251.14826 39.410023,251.10661 C 40.642871,250.86702 41.208345,249.5035 41.35095,248.38402 C 41.690967,246.29264 41.259271,244.13276 40.322953,242.24701 C 39.249438,239.84539 36.951053,237.97998 34.298005,237.70881 z M 47.111175,243.73176 C 45.83423,243.58886 44.726235,244.82777 44.730201,246.05751 C 44.215687,248.74023 43.777649,251.43742 43.420276,254.14557 C 43.007051,254.66371 42.064449,254.87457 42.094491,255.66373 C 42.559108,256.6139 42.511222,257.70253 42.856589,258.68615 C 43.624488,259.30025 44.344823,258.28978 44.384061,257.59113 C 44.92607,257.12345 46.202201,257.83804 46.309369,256.895 C 46.192224,256.06514 44.862852,255.79508 45.194714,254.83186 C 45.391046,254.03259 45.635233,253.24297 45.622008,252.41116 C 45.808543,250.76862 45.855235,249.07672 46.505563,247.53071 C 47.328228,247.05223 48.491802,246.63567 48.56743,245.52324 C 48.657918,244.68288 48.026834,243.69905 47.111175,243.73176 z M 50.462103,244.82094 C 49.666178,245.58975 50.168081,246.79621 49.969333,247.75944 C 49.721721,250.83042 49.474108,253.90141 49.226497,256.9724 C 48.283394,257.51241 48.588261,259.06253 49.566503,259.39978 C 50.346151,259.93199 51.179224,259.28522 51.091029,258.41063 C 51.226629,256.97725 51.555219,255.57255 51.734463,254.14067 C 51.981341,252.81423 51.851129,251.45825 52.045963,250.12517 C 52.067858,248.80943 52.107007,247.47472 51.943454,246.17119 C 51.796771,245.52502 51.162229,244.73079 50.471134,244.81664 L 50.462103,244.82094 z M 48.100931,260.0291 C 47.21101,260.01409 47.644586,261.51317 48.398245,261.49206 C 49.058971,261.93318 50.06724,260.97736 49.210591,260.50461 C 48.906947,260.2284 48.522706,260.01538 48.100931,260.0291 z"
   id="text3291" /></g></svg>